<svg aria-hidden="true" style="position: absolute; width: 0; height: 0; overflow: hidden;" version="1.1" xmlns="http://www.w3.org/2000/svg" xmlns:xlink="http://www.w3.org/1999/xlink">
<defs>
<symbol id="a-design-award" viewBox="0 0 32 32">
<path fill="#c4a386" style="fill: var(--color1, #c4a386)" d="M11.442 28.155c-0.184-0.144-0.389-0.26-0.608-0.343-0.205-0.072-0.419-0.112-0.636-0.12-0.47-0.005-0.938 0.054-1.391 0.176-0.464 0.116-0.908 0.251-1.235 0.363s-0.544 0.195-0.544 0.195 0.212 0.12 0.548 0.263c0.42 0.182 0.86 0.316 1.311 0.399 0.51 0.1 1.035 0.088 1.539-0.036 0.232-0.050 0.448-0.158 0.626-0.315s0.312-0.357 0.39-0.581z"></path>
<path fill="#c4a386" style="fill: var(--color1, #c4a386)" d="M10.027 26.106c0.173 0.414 0.448 0.778 0.8 1.056 0.167 0.129 0.361 0.219 0.568 0.263 0.213 0.043 0.434 0.023 0.636-0.060 0.014-0.422-0.1-0.839-0.328-1.196-0.217-0.331-0.487-0.625-0.8-0.869-0.271-0.218-0.556-0.419-0.852-0.602-0.236-0.148-0.4-0.231-0.4-0.231s0 0.052 0 0.144c0 0.092 0.024 0.215 0.052 0.375 0.062 0.385 0.171 0.761 0.324 1.12z"></path>
<path fill="#c4a386" style="fill: var(--color1, #c4a386)" d="M6.692 27.182c0.226-0.003 0.448-0.057 0.65-0.158s0.377-0.248 0.513-0.428c-0.106-0.188-0.25-0.352-0.422-0.483s-0.368-0.226-0.578-0.279c-0.452-0.121-0.919-0.181-1.387-0.179-0.476 0-0.952 0-1.307 0h-0.596c0 0 0.044 0.052 0.124 0.132s0.204 0.187 0.356 0.311c0.366 0.3 0.769 0.552 1.199 0.749 0.45 0.222 0.945 0.336 1.447 0.335z"></path>
<path fill="#c4a386" style="fill: var(--color1, #c4a386)" d="M7.596 25.36c0.124 0.17 0.288 0.307 0.478 0.399s0.399 0.136 0.61 0.128c0.166-0.4 0.176-0.848 0.028-1.256-0.142-0.374-0.342-0.724-0.592-1.036-0.228-0.311-0.46-0.578-0.628-0.765-0.084-0.1-0.156-0.176-0.204-0.227l-0.076-0.080c0 0 0 0.048-0.040 0.132-0.030 0.12-0.054 0.241-0.072 0.363-0.059 0.382-0.059 0.77 0 1.152 0.063 0.432 0.233 0.842 0.496 1.192z"></path>
<path fill="#c4a386" style="fill: var(--color1, #c4a386)" d="M1.895 22.040c-0.328-0.104-0.544-0.163-0.544-0.163s0.020 0.056 0.064 0.147c0.044 0.092 0.112 0.215 0.196 0.367s0.188 0.327 0.308 0.51c0.060 0.092 0.124 0.183 0.192 0.279l0.052 0.072 0.068 0.088 0.14 0.176c0.345 0.434 0.805 0.764 1.327 0.953 0.216 0.080 0.449 0.104 0.677 0.071s0.445-0.122 0.63-0.259c-0.107-0.426-0.364-0.8-0.724-1.052-0.084-0.068-0.18-0.132-0.276-0.199l-0.304-0.191-0.324-0.187c-0.1-0.056-0.204-0.107-0.308-0.155-0.381-0.177-0.774-0.329-1.175-0.454z"></path>
<path fill="#c4a386" style="fill: var(--color1, #c4a386)" d="M5.117 22.861c0.054 0.202 0.162 0.385 0.312 0.531s0.336 0.249 0.54 0.298c0.264-0.334 0.414-0.743 0.428-1.168 0.011-0.354-0.014-0.707-0.072-1.056-0.024-0.177-0.061-0.351-0.112-0.522-0.052-0.175-0.104-0.335-0.156-0.466s-0.096-0.243-0.128-0.319l-0.044-0.12-0.084 0.12c-0.052 0.080-0.116 0.191-0.188 0.331-0.186 0.355-0.334 0.727-0.444 1.112-0.028 0.108-0.056 0.219-0.080 0.331-0.021 0.105-0.035 0.212-0.044 0.319-0.010 0.106-0.010 0.213 0 0.319 0.015 0.099 0.039 0.197 0.072 0.291z"></path>
<path fill="#c4a386" style="fill: var(--color1, #c4a386)" d="M1.391 20.405c0.078 0.091 0.164 0.175 0.256 0.251 0.087 0.075 0.179 0.143 0.276 0.203 0.181 0.132 0.39 0.221 0.611 0.261s0.448 0.030 0.664-0.030c0.038-0.213 0.024-0.431-0.040-0.638-0.030-0.098-0.071-0.191-0.124-0.279-0.052-0.091-0.11-0.179-0.172-0.263-0.287-0.359-0.633-0.666-1.023-0.909-0.344-0.242-0.702-0.464-1.071-0.666l-0.504-0.271c0 0 0 0.060 0.032 0.159s0.068 0.239 0.128 0.399c0.128 0.42 0.31 0.822 0.54 1.196 0.128 0.206 0.271 0.402 0.428 0.586z"></path>
<path fill="#c4a386" style="fill: var(--color1, #c4a386)" d="M3.894 20.238c0.090 0.189 0.228 0.351 0.4 0.47 0.384-0.215 0.671-0.569 0.8-0.989 0.032-0.098 0.057-0.198 0.076-0.299l0.024-0.151c0-0.048 0-0.1 0.024-0.151 0.024-0.204 0.032-0.409 0.024-0.614-0.013-0.347-0.047-0.693-0.1-1.036-0.024-0.136-0.048-0.247-0.064-0.323s-0.024-0.12-0.024-0.12l-0.1 0.1c-0.089 0.088-0.173 0.181-0.252 0.279-0.248 0.303-0.462 0.632-0.64 0.981-0.195 0.393-0.3 0.825-0.308 1.264 0.001 0.104 0.014 0.207 0.040 0.307 0.023 0.098 0.056 0.193 0.1 0.283z"></path>
<path fill="#c4a386" style="fill: var(--color1, #c4a386)" d="M0.584 16.618c0.056 0.106 0.12 0.207 0.192 0.303 0.072 0.093 0.151 0.181 0.236 0.263 0.153 0.161 0.34 0.285 0.548 0.365s0.43 0.111 0.652 0.094c0.079-0.2 0.108-0.416 0.084-0.63-0.012-0.102-0.035-0.202-0.068-0.299-0.026-0.101-0.059-0.199-0.1-0.295-0.096-0.202-0.216-0.392-0.356-0.566l-0.216-0.271c-0.072-0.092-0.152-0.179-0.228-0.267-0.316-0.343-0.66-0.662-0.904-0.897s-0.424-0.391-0.424-0.391c0 0 0 0.239 0 0.598 0.019 0.206 0.048 0.411 0.088 0.614 0.024 0.112 0.048 0.227 0.076 0.343 0.026 0.119 0.059 0.236 0.1 0.351 0.091 0.236 0.198 0.465 0.32 0.686z"></path>
<path fill="#c4a386" style="fill: var(--color1, #c4a386)" d="M3.362 17.384c0.409-0.137 0.753-0.421 0.964-0.797 0.051-0.087 0.095-0.177 0.132-0.271 0.046-0.092 0.086-0.186 0.12-0.283 0.063-0.186 0.111-0.377 0.144-0.57 0.036-0.187 0.076-0.371 0.096-0.538 0-0.088 0-0.167 0.024-0.243s0-0.147 0-0.215c0.022-0.145 0.035-0.292 0.040-0.439 0 0-0.176 0.1-0.428 0.279l-0.204 0.151c-0.072 0.060-0.144 0.12-0.216 0.187-0.156 0.139-0.302 0.29-0.436 0.45-0.068 0.084-0.136 0.171-0.2 0.263l-0.088 0.14-0.076 0.148c-0.095 0.191-0.165 0.393-0.208 0.602-0.022 0.101-0.033 0.204-0.032 0.307 0.006 0.1 0.022 0.199 0.048 0.295 0.057 0.203 0.168 0.387 0.32 0.534z"></path>
<path fill="#c4a386" style="fill: var(--color1, #c4a386)" d="M1.699 11.636c-0.108-0.207-0.224-0.399-0.336-0.594l-0.308-0.498c-0.18-0.291-0.312-0.478-0.312-0.478s-0.068 0.227-0.14 0.578c-0.024 0.179-0.052 0.399-0.068 0.618 0 0.112 0 0.231 0 0.351s0 0.243 0 0.367c0.019 0.247 0.060 0.493 0.12 0.734 0.063 0.231 0.157 0.452 0.28 0.658 0.11 0.192 0.264 0.356 0.448 0.479s0.395 0.202 0.615 0.23c0.060-0.091 0.108-0.188 0.144-0.291 0.038-0.096 0.065-0.197 0.080-0.299 0.031-0.205 0.021-0.413-0.028-0.614-0.046-0.216-0.111-0.426-0.196-0.63-0.088-0.211-0.196-0.427-0.3-0.61z"></path>
<path fill="#c4a386" style="fill: var(--color1, #c4a386)" d="M4.286 13.437c0.141-0.138 0.265-0.294 0.368-0.462 0.112-0.158 0.21-0.326 0.292-0.502 0.044-0.084 0.076-0.167 0.116-0.247l0.104-0.239c0.064-0.155 0.112-0.299 0.156-0.423 0.092-0.243 0.136-0.399 0.136-0.399-0.167 0.043-0.331 0.095-0.492 0.155-0.36 0.135-0.7 0.317-1.011 0.542-0.091 0.062-0.178 0.13-0.26 0.203-0.080 0.073-0.156 0.15-0.228 0.231-0.143 0.16-0.263 0.34-0.356 0.534-0.082 0.183-0.124 0.381-0.124 0.582-0.003 0.1 0.011 0.199 0.040 0.295 0.033 0.102 0.079 0.2 0.136 0.291 0.429-0.050 0.827-0.249 1.123-0.562z"></path>
<path fill="#c4a386" style="fill: var(--color1, #c4a386)" d="M2.882 10.352c0.062-0.081 0.115-0.169 0.156-0.263 0.039-0.092 0.069-0.188 0.088-0.287 0-0.1 0.028-0.203 0.040-0.307 0.013-0.217 0.001-0.435-0.036-0.65-0.030-0.23-0.075-0.457-0.132-0.682-0.116-0.454-0.24-0.881-0.356-1.196s-0.188-0.554-0.188-0.554-0.032 0.052-0.080 0.14c-0.048 0.088-0.112 0.223-0.188 0.399-0.181 0.401-0.315 0.821-0.4 1.252-0.040 0.239-0.062 0.48-0.068 0.722 0.001 0.12 0.011 0.24 0.028 0.359 0.019 0.114 0.044 0.227 0.076 0.339 0.058 0.212 0.162 0.41 0.304 0.578 0.145 0.176 0.332 0.313 0.544 0.399 0.082-0.072 0.153-0.156 0.212-0.247z"></path>
<path fill="#c4a386" style="fill: var(--color1, #c4a386)" d="M6.673 8.622c0.044-0.064 0.064-0.1 0.064-0.1h-0.14c-0.096 0-0.22 0-0.372 0.032s-0.332 0.048-0.524 0.092c-0.096 0.020-0.196 0.048-0.296 0.076s-0.196 0.068-0.296 0.108c-0.205 0.077-0.4 0.176-0.584 0.295-0.175 0.112-0.335 0.246-0.476 0.399-0.065 0.077-0.12 0.161-0.164 0.251-0.043 0.088-0.078 0.18-0.104 0.275-0.027 0.096-0.041 0.195-0.040 0.295 0.009 0.107 0.029 0.212 0.060 0.315 0.218 0.042 0.442 0.042 0.66 0 0.199-0.045 0.39-0.119 0.568-0.219 0.084-0.052 0.168-0.104 0.248-0.163l0.112-0.092 0.116-0.096c0.144-0.121 0.278-0.255 0.4-0.399 0.12-0.126 0.232-0.259 0.336-0.399l0.072-0.104 0.068-0.092c0.048-0.064 0.088-0.124 0.124-0.175s0.132-0.231 0.168-0.299z"></path>
<path fill="#c4a386" style="fill: var(--color1, #c4a386)" d="M4.186 7.418c0.189-0.092 0.352-0.229 0.476-0.399 0.124-0.162 0.215-0.346 0.268-0.542 0.218-0.837 0.16-1.727 0.084-2.579-0.036-0.331-0.072-0.554-0.072-0.554-0.162 0.125-0.284 0.271-0.404 0.438-0.121 0.158-0.233 0.323-0.336 0.494-0.119 0.199-0.226 0.406-0.32 0.618-0.095 0.222-0.171 0.451-0.228 0.686-0.047 0.228-0.066 0.461-0.056 0.694 0.006 0.222 0.061 0.441 0.163 0.639s0.247 0.371 0.425 0.505z"></path>
<path fill="#c4a386" style="fill: var(--color1, #c4a386)" d="M7.544 7.179c0.156-0.116 0.3-0.227 0.428-0.339s0.248-0.219 0.34-0.311c0.092-0.092 0.176-0.171 0.228-0.227l0.084-0.088c-0.169-0.034-0.34-0.059-0.512-0.076s-0.344-0.023-0.516-0.020c-0.209-0.001-0.417 0.015-0.624 0.048-0.431 0.050-0.843 0.205-1.199 0.45-0.161 0.121-0.297 0.273-0.4 0.446-0.090 0.182-0.133 0.383-0.124 0.586 0.395 0.17 0.837 0.193 1.247 0.064 0.192-0.056 0.377-0.133 0.552-0.231 0.173-0.088 0.338-0.19 0.496-0.303z"></path>
<path fill="#c4a386" style="fill: var(--color1, #c4a386)" d="M6.267 5.363c0.235 0 0.602 0.022 0.901-0.185 0.081-0.059 0.158-0.123 0.232-0.191 0.077-0.068 0.149-0.141 0.216-0.219 0.144-0.155 0.278-0.321 0.4-0.494 0.232-0.343 0.432-0.698 0.576-0.965 0.072-0.132 0.122-0.247 0.162-0.327l0.027-0.068 0.015-0.048-0.186 0.013c-0.124 0.016-0.196 0.027-0.317 0.059-0.382 0.097-0.75 0.241-1.095 0.431-0.399 0.206-0.744 0.502-1.007 0.865-0.122 0.172-0.204 0.37-0.24 0.578-0.040 0.174-0.039 0.35 0 0.53z"></path>
<path fill="#c4a386" style="fill: var(--color1, #c4a386)" d="M20.558 28.155c0.184-0.144 0.389-0.26 0.608-0.343 0.205-0.072 0.419-0.112 0.636-0.12 0.47-0.005 0.938 0.054 1.391 0.176 0.464 0.116 0.908 0.251 1.235 0.363s0.544 0.195 0.544 0.195-0.212 0.12-0.548 0.263c-0.421 0.182-0.86 0.316-1.311 0.399-0.51 0.1-1.035 0.088-1.539-0.036-0.232-0.050-0.448-0.158-0.626-0.315s-0.312-0.357-0.39-0.581z"></path>
<path fill="#c4a386" style="fill: var(--color1, #c4a386)" d="M21.973 26.106c-0.173 0.414-0.448 0.778-0.8 1.056-0.167 0.129-0.361 0.219-0.568 0.263-0.213 0.043-0.434 0.023-0.636-0.060-0.014-0.422 0.1-0.839 0.328-1.196 0.217-0.331 0.487-0.625 0.8-0.869 0.271-0.218 0.556-0.419 0.852-0.602 0.236-0.148 0.4-0.231 0.4-0.231s0 0.052 0 0.144c0 0.092-0.024 0.215-0.052 0.375-0.062 0.385-0.17 0.761-0.324 1.12z"></path>
<path fill="#c4a386" style="fill: var(--color1, #c4a386)" d="M25.308 27.182c-0.226-0.003-0.448-0.057-0.65-0.158s-0.377-0.248-0.513-0.428c0.106-0.188 0.25-0.352 0.422-0.483s0.368-0.226 0.578-0.279c0.452-0.121 0.919-0.181 1.387-0.179 0.476 0 0.951 0 1.307 0h0.596c0 0-0.044 0.052-0.124 0.132s-0.204 0.187-0.356 0.311c-0.366 0.3-0.769 0.552-1.199 0.749-0.45 0.222-0.945 0.336-1.447 0.335z"></path>
<path fill="#c4a386" style="fill: var(--color1, #c4a386)" d="M24.404 25.36c-0.124 0.17-0.288 0.307-0.478 0.399s-0.399 0.136-0.61 0.128c-0.166-0.4-0.176-0.848-0.028-1.256 0.142-0.374 0.342-0.724 0.592-1.036 0.228-0.311 0.46-0.578 0.628-0.765 0.084-0.1 0.156-0.176 0.204-0.227l0.076-0.080c0 0 0 0.048 0.040 0.132 0.030 0.12 0.054 0.241 0.072 0.363 0.059 0.382 0.059 0.77 0 1.152-0.063 0.432-0.233 0.842-0.496 1.192z"></path>
<path fill="#c4a386" style="fill: var(--color1, #c4a386)" d="M30.105 22.040c0.328-0.104 0.544-0.163 0.544-0.163s-0.020 0.056-0.064 0.147c-0.044 0.092-0.112 0.215-0.196 0.367s-0.188 0.327-0.308 0.51c-0.060 0.092-0.124 0.183-0.192 0.279l-0.052 0.072-0.068 0.088-0.14 0.176c-0.345 0.434-0.805 0.764-1.327 0.953-0.216 0.080-0.449 0.104-0.677 0.071s-0.445-0.122-0.63-0.259c0.107-0.426 0.364-0.8 0.724-1.052 0.084-0.068 0.18-0.132 0.276-0.199l0.304-0.191 0.324-0.187c0.1-0.056 0.204-0.107 0.308-0.155 0.381-0.177 0.774-0.329 1.175-0.454z"></path>
<path fill="#c4a386" style="fill: var(--color1, #c4a386)" d="M26.882 22.861c-0.054 0.202-0.162 0.385-0.312 0.531s-0.336 0.249-0.54 0.298c-0.264-0.334-0.414-0.743-0.428-1.168-0.011-0.354 0.014-0.707 0.072-1.056 0.024-0.177 0.061-0.351 0.112-0.522 0.052-0.175 0.104-0.335 0.156-0.466s0.096-0.243 0.128-0.319l0.044-0.12 0.084 0.12c0.052 0.080 0.116 0.191 0.188 0.331 0.186 0.355 0.335 0.727 0.444 1.112 0.028 0.108 0.056 0.219 0.080 0.331 0.021 0.105 0.036 0.212 0.044 0.319 0.010 0.106 0.010 0.213 0 0.319-0.015 0.099-0.039 0.197-0.072 0.291z"></path>
<path fill="#c4a386" style="fill: var(--color1, #c4a386)" d="M30.609 20.405c-0.078 0.091-0.164 0.175-0.256 0.251-0.087 0.075-0.179 0.143-0.276 0.203-0.181 0.132-0.39 0.221-0.611 0.261s-0.448 0.030-0.664-0.030c-0.038-0.213-0.024-0.431 0.040-0.638 0.030-0.098 0.071-0.191 0.124-0.279 0.052-0.091 0.11-0.179 0.172-0.263 0.287-0.359 0.633-0.666 1.023-0.909 0.344-0.242 0.702-0.464 1.071-0.666l0.504-0.271c0 0 0 0.060-0.032 0.159s-0.068 0.239-0.128 0.399c-0.128 0.42-0.31 0.822-0.54 1.196-0.128 0.206-0.271 0.402-0.428 0.586z"></path>
<path fill="#c4a386" style="fill: var(--color1, #c4a386)" d="M28.106 20.238c-0.090 0.189-0.228 0.351-0.4 0.47-0.384-0.215-0.671-0.569-0.8-0.989-0.032-0.098-0.057-0.198-0.076-0.299l-0.024-0.151c0-0.048 0-0.1-0.024-0.151-0.024-0.204-0.032-0.409-0.024-0.614 0.013-0.347 0.047-0.693 0.1-1.036 0.024-0.136 0.048-0.247 0.064-0.323s0.024-0.12 0.024-0.12l0.1 0.1c0.089 0.088 0.173 0.181 0.252 0.279 0.248 0.303 0.462 0.632 0.64 0.981 0.195 0.393 0.3 0.825 0.308 1.264-0.001 0.104-0.014 0.207-0.040 0.307-0.023 0.098-0.056 0.193-0.1 0.283z"></path>
<path fill="#c4a386" style="fill: var(--color1, #c4a386)" d="M31.416 16.618c-0.056 0.106-0.12 0.207-0.192 0.303-0.072 0.093-0.151 0.181-0.236 0.263-0.153 0.161-0.34 0.285-0.548 0.365s-0.43 0.111-0.652 0.094c-0.079-0.2-0.108-0.416-0.084-0.63 0.012-0.102 0.035-0.202 0.068-0.299 0.026-0.101 0.059-0.199 0.1-0.295 0.096-0.202 0.216-0.392 0.356-0.566l0.216-0.271c0.072-0.092 0.152-0.179 0.228-0.267 0.316-0.343 0.66-0.662 0.904-0.897s0.424-0.391 0.424-0.391c0 0 0 0.239 0 0.598-0.019 0.206-0.048 0.411-0.088 0.614-0.024 0.112-0.048 0.227-0.076 0.343-0.026 0.119-0.059 0.236-0.1 0.351-0.091 0.236-0.197 0.465-0.32 0.686z"></path>
<path fill="#c4a386" style="fill: var(--color1, #c4a386)" d="M28.638 17.384c-0.41-0.137-0.753-0.421-0.964-0.797-0.051-0.087-0.095-0.177-0.132-0.271-0.046-0.092-0.086-0.186-0.12-0.283-0.063-0.186-0.111-0.377-0.144-0.57-0.036-0.187-0.076-0.371-0.096-0.538 0-0.088 0-0.167-0.024-0.243s0-0.147 0-0.215c-0.022-0.145-0.035-0.292-0.040-0.439 0 0 0.176 0.1 0.428 0.279l0.204 0.151c0.072 0.060 0.144 0.12 0.216 0.187 0.156 0.139 0.302 0.29 0.436 0.45 0.068 0.084 0.136 0.171 0.2 0.263l0.088 0.14 0.076 0.148c0.095 0.191 0.165 0.393 0.208 0.602 0.022 0.101 0.033 0.204 0.032 0.307-0.006 0.1-0.022 0.199-0.048 0.295-0.057 0.203-0.168 0.387-0.32 0.534z"></path>
<path fill="#c4a386" style="fill: var(--color1, #c4a386)" d="M30.301 11.636c0.108-0.207 0.224-0.399 0.336-0.594l0.308-0.498c0.18-0.291 0.312-0.478 0.312-0.478s0.068 0.227 0.14 0.578c0.024 0.179 0.052 0.399 0.068 0.618 0 0.112 0 0.231 0 0.351s0 0.243 0 0.367c-0.019 0.247-0.060 0.493-0.12 0.734-0.063 0.231-0.157 0.452-0.28 0.658-0.11 0.192-0.264 0.356-0.448 0.479s-0.395 0.202-0.615 0.23c-0.060-0.091-0.108-0.188-0.144-0.291-0.038-0.096-0.065-0.197-0.080-0.299-0.031-0.205-0.021-0.413 0.028-0.614 0.046-0.216 0.111-0.426 0.196-0.63 0.088-0.211 0.196-0.427 0.3-0.61z"></path>
<path fill="#c4a386" style="fill: var(--color1, #c4a386)" d="M27.714 13.437c-0.141-0.138-0.265-0.294-0.368-0.462-0.112-0.158-0.21-0.326-0.292-0.502-0.044-0.084-0.076-0.167-0.116-0.247l-0.104-0.239c-0.064-0.155-0.112-0.299-0.156-0.423-0.092-0.243-0.136-0.399-0.136-0.399 0.167 0.043 0.331 0.095 0.492 0.155 0.36 0.135 0.7 0.317 1.011 0.542 0.091 0.062 0.178 0.13 0.26 0.203 0.080 0.073 0.156 0.15 0.228 0.231 0.143 0.16 0.263 0.34 0.356 0.534 0.082 0.183 0.124 0.381 0.124 0.582 0.003 0.1-0.011 0.199-0.040 0.295-0.033 0.102-0.079 0.2-0.136 0.291-0.429-0.050-0.827-0.249-1.123-0.562z"></path>
<path fill="#c4a386" style="fill: var(--color1, #c4a386)" d="M29.118 10.352c-0.062-0.081-0.115-0.169-0.156-0.263-0.039-0.092-0.069-0.188-0.088-0.287 0-0.1-0.028-0.203-0.040-0.307-0.013-0.217-0.001-0.435 0.036-0.65 0.030-0.23 0.075-0.457 0.132-0.682 0.116-0.454 0.24-0.881 0.356-1.196s0.188-0.554 0.188-0.554 0.032 0.052 0.080 0.14c0.048 0.088 0.112 0.223 0.188 0.399 0.181 0.401 0.315 0.821 0.4 1.252 0.040 0.239 0.062 0.48 0.068 0.722-0.001 0.12-0.011 0.24-0.028 0.359-0.019 0.114-0.044 0.227-0.076 0.339-0.058 0.212-0.162 0.41-0.304 0.578-0.145 0.176-0.332 0.313-0.544 0.399-0.082-0.072-0.153-0.156-0.212-0.247z"></path>
<path fill="#c4a386" style="fill: var(--color1, #c4a386)" d="M25.327 8.622c-0.044-0.064-0.064-0.1-0.064-0.1h0.14c0.096 0 0.22 0 0.372 0.032s0.332 0.048 0.524 0.092c0.096 0.020 0.196 0.048 0.296 0.076s0.196 0.068 0.296 0.108c0.205 0.077 0.4 0.176 0.584 0.295 0.175 0.112 0.335 0.246 0.476 0.399 0.065 0.077 0.12 0.161 0.164 0.251 0.043 0.088 0.078 0.18 0.104 0.275 0.027 0.096 0.041 0.195 0.040 0.295-0.009 0.107-0.029 0.212-0.060 0.315-0.218 0.042-0.442 0.042-0.66 0-0.199-0.045-0.39-0.119-0.568-0.219-0.084-0.052-0.168-0.104-0.248-0.163l-0.112-0.092-0.116-0.096c-0.144-0.121-0.278-0.255-0.4-0.399-0.12-0.126-0.232-0.259-0.336-0.399l-0.072-0.104-0.068-0.092c-0.048-0.064-0.088-0.124-0.124-0.175s-0.132-0.231-0.168-0.299z"></path>
<path fill="#c4a386" style="fill: var(--color1, #c4a386)" d="M27.814 7.418c-0.189-0.092-0.352-0.229-0.476-0.399-0.124-0.162-0.215-0.346-0.268-0.542-0.218-0.837-0.16-1.727-0.084-2.579 0.036-0.331 0.072-0.554 0.072-0.554 0.162 0.125 0.284 0.271 0.404 0.438 0.121 0.158 0.233 0.323 0.336 0.494 0.119 0.199 0.226 0.406 0.32 0.618 0.095 0.222 0.171 0.451 0.228 0.686 0.047 0.228 0.066 0.461 0.056 0.694-0.006 0.222-0.061 0.441-0.163 0.639s-0.247 0.371-0.425 0.505z"></path>
<path fill="#c4a386" style="fill: var(--color1, #c4a386)" d="M24.456 7.179c-0.156-0.116-0.3-0.227-0.428-0.339s-0.248-0.219-0.34-0.311-0.176-0.171-0.228-0.227l-0.084-0.088c0.169-0.034 0.34-0.059 0.512-0.076s0.344-0.023 0.516-0.020c0.209-0.001 0.417 0.015 0.624 0.048 0.431 0.050 0.843 0.205 1.199 0.45 0.161 0.121 0.297 0.273 0.4 0.446 0.090 0.182 0.133 0.383 0.124 0.586-0.395 0.17-0.837 0.193-1.247 0.064-0.192-0.056-0.377-0.133-0.552-0.231-0.173-0.088-0.338-0.19-0.496-0.303z"></path>
<path fill="#c4a386" style="fill: var(--color1, #c4a386)" d="M25.733 5.363c-0.235 0-0.602 0.022-0.901-0.185-0.081-0.059-0.158-0.123-0.232-0.191-0.077-0.068-0.149-0.141-0.216-0.219-0.144-0.155-0.278-0.321-0.4-0.494-0.232-0.343-0.432-0.698-0.576-0.965-0.072-0.132-0.122-0.247-0.162-0.327l-0.027-0.068-0.015-0.048 0.186 0.013c0.124 0.016 0.196 0.027 0.317 0.059 0.382 0.097 0.75 0.241 1.095 0.431 0.399 0.206 0.744 0.502 1.007 0.865 0.122 0.172 0.204 0.37 0.24 0.578 0.040 0.174 0.039 0.35 0 0.53z"></path>
<path fill="#c4a386" style="fill: var(--color1, #c4a386)" d="M11.201 13.935c0.001 3.067 0.003 3.529 0.020 3.494 0.010-0.022 0.106-0.288 0.213-0.591 0.242-0.688 1.431-4.061 1.874-5.316 0.182-0.516 0.337-0.941 0.345-0.943s0.047 0.091 0.089 0.207c0.104 0.29 0.457 1.283 1.104 3.105 0.3 0.846 0.561 1.58 0.58 1.631s0.38 1.068 0.804 2.259c0.424 1.191 0.777 2.177 0.785 2.192 0.014 0.027 0.027 0.027 1.9 0.027h1.886v-9.6h-9.6l0.001 3.535zM13.602 14.591c-0.269 0.040-0.556 0.358-0.838 0.932-0.294 0.597-0.528 1.333-0.644 2.025-0.106 0.634-0.074 1.049 0.108 1.406 0.176 0.344 0.483 0.547 0.959 0.634 0.205 0.038 0.702 0.041 0.9 0.007 0.696-0.122 1.060-0.483 1.154-1.144 0.046-0.325-0.011-0.863-0.155-1.443-0.244-0.991-0.619-1.819-0.993-2.196-0.174-0.175-0.327-0.243-0.492-0.219z"></path>
</symbol>
<symbol id="german-design-award" viewBox="0 0 32 32">
<path fill="#c4a386" style="fill: var(--color1, #c4a386)" d="M11.442 28.155c-0.184-0.144-0.389-0.26-0.608-0.343-0.205-0.072-0.419-0.112-0.636-0.12-0.47-0.005-0.938 0.054-1.391 0.176-0.464 0.116-0.908 0.251-1.235 0.363s-0.544 0.195-0.544 0.195 0.212 0.12 0.548 0.263c0.42 0.182 0.86 0.316 1.311 0.399 0.51 0.1 1.035 0.088 1.539-0.036 0.232-0.050 0.448-0.158 0.626-0.315s0.312-0.357 0.39-0.581z"></path>
<path fill="#c4a386" style="fill: var(--color1, #c4a386)" d="M10.027 26.106c0.173 0.414 0.448 0.778 0.8 1.056 0.167 0.129 0.361 0.219 0.568 0.263 0.213 0.043 0.434 0.023 0.636-0.060 0.014-0.422-0.1-0.839-0.328-1.196-0.217-0.331-0.487-0.625-0.8-0.869-0.271-0.218-0.556-0.419-0.852-0.602-0.236-0.148-0.4-0.231-0.4-0.231s0 0.052 0 0.144c0 0.092 0.024 0.215 0.052 0.375 0.062 0.385 0.171 0.761 0.324 1.12z"></path>
<path fill="#c4a386" style="fill: var(--color1, #c4a386)" d="M6.692 27.182c0.226-0.003 0.448-0.057 0.65-0.158s0.377-0.248 0.513-0.428c-0.106-0.188-0.25-0.352-0.422-0.483s-0.368-0.226-0.578-0.279c-0.452-0.121-0.919-0.181-1.387-0.179-0.476 0-0.952 0-1.307 0h-0.596c0 0 0.044 0.052 0.124 0.132s0.204 0.187 0.356 0.311c0.366 0.3 0.769 0.552 1.199 0.749 0.45 0.222 0.945 0.336 1.447 0.335z"></path>
<path fill="#c4a386" style="fill: var(--color1, #c4a386)" d="M7.596 25.36c0.124 0.17 0.288 0.307 0.478 0.399s0.399 0.136 0.61 0.128c0.166-0.4 0.176-0.848 0.028-1.256-0.142-0.374-0.342-0.724-0.592-1.036-0.228-0.311-0.46-0.578-0.628-0.765-0.084-0.1-0.156-0.176-0.204-0.227l-0.076-0.080c0 0 0 0.048-0.040 0.132-0.030 0.12-0.054 0.241-0.072 0.363-0.059 0.382-0.059 0.77 0 1.152 0.063 0.432 0.233 0.842 0.496 1.192z"></path>
<path fill="#c4a386" style="fill: var(--color1, #c4a386)" d="M1.895 22.040c-0.328-0.104-0.544-0.163-0.544-0.163s0.020 0.056 0.064 0.147c0.044 0.092 0.112 0.215 0.196 0.367s0.188 0.327 0.308 0.51c0.060 0.092 0.124 0.183 0.192 0.279l0.052 0.072 0.068 0.088 0.14 0.176c0.345 0.434 0.805 0.764 1.327 0.953 0.216 0.080 0.449 0.104 0.677 0.071s0.445-0.122 0.63-0.259c-0.107-0.426-0.364-0.8-0.724-1.052-0.084-0.068-0.18-0.132-0.276-0.199l-0.304-0.191-0.324-0.187c-0.1-0.056-0.204-0.107-0.308-0.155-0.381-0.177-0.774-0.329-1.175-0.454z"></path>
<path fill="#c4a386" style="fill: var(--color1, #c4a386)" d="M5.117 22.861c0.054 0.202 0.162 0.385 0.312 0.531s0.336 0.249 0.54 0.298c0.264-0.334 0.414-0.743 0.428-1.168 0.011-0.354-0.014-0.707-0.072-1.056-0.024-0.177-0.061-0.351-0.112-0.522-0.052-0.175-0.104-0.335-0.156-0.466s-0.096-0.243-0.128-0.319l-0.044-0.12-0.084 0.12c-0.052 0.080-0.116 0.191-0.188 0.331-0.186 0.355-0.334 0.727-0.444 1.112-0.028 0.108-0.056 0.219-0.080 0.331-0.021 0.105-0.035 0.212-0.044 0.319-0.010 0.106-0.010 0.213 0 0.319 0.015 0.099 0.039 0.197 0.072 0.291z"></path>
<path fill="#c4a386" style="fill: var(--color1, #c4a386)" d="M1.391 20.405c0.078 0.091 0.164 0.175 0.256 0.251 0.087 0.075 0.179 0.143 0.276 0.203 0.181 0.132 0.39 0.221 0.611 0.261s0.448 0.030 0.664-0.030c0.038-0.213 0.024-0.431-0.040-0.638-0.030-0.098-0.071-0.191-0.124-0.279-0.052-0.091-0.11-0.179-0.172-0.263-0.287-0.359-0.633-0.666-1.023-0.909-0.344-0.242-0.702-0.464-1.071-0.666l-0.504-0.271c0 0 0 0.060 0.032 0.159s0.068 0.239 0.128 0.399c0.128 0.42 0.31 0.822 0.54 1.196 0.128 0.206 0.271 0.402 0.428 0.586z"></path>
<path fill="#c4a386" style="fill: var(--color1, #c4a386)" d="M3.894 20.238c0.090 0.189 0.228 0.351 0.4 0.47 0.384-0.215 0.671-0.569 0.8-0.989 0.032-0.098 0.057-0.198 0.076-0.299l0.024-0.151c0-0.048 0-0.1 0.024-0.151 0.024-0.204 0.032-0.409 0.024-0.614-0.013-0.347-0.047-0.693-0.1-1.036-0.024-0.136-0.048-0.247-0.064-0.323s-0.024-0.12-0.024-0.12l-0.1 0.1c-0.089 0.088-0.173 0.181-0.252 0.279-0.248 0.303-0.462 0.632-0.64 0.981-0.195 0.393-0.3 0.825-0.308 1.264 0.001 0.104 0.014 0.207 0.040 0.307 0.023 0.098 0.056 0.193 0.1 0.283z"></path>
<path fill="#c4a386" style="fill: var(--color1, #c4a386)" d="M0.584 16.618c0.056 0.106 0.12 0.207 0.192 0.303 0.072 0.093 0.151 0.181 0.236 0.263 0.153 0.161 0.34 0.285 0.548 0.365s0.43 0.111 0.652 0.094c0.079-0.2 0.108-0.416 0.084-0.63-0.012-0.102-0.035-0.202-0.068-0.299-0.026-0.101-0.059-0.199-0.1-0.295-0.096-0.202-0.216-0.392-0.356-0.566l-0.216-0.271c-0.072-0.092-0.152-0.179-0.228-0.267-0.316-0.343-0.66-0.662-0.904-0.897s-0.424-0.391-0.424-0.391c0 0 0 0.239 0 0.598 0.019 0.206 0.048 0.411 0.088 0.614 0.024 0.112 0.048 0.227 0.076 0.343 0.026 0.119 0.059 0.236 0.1 0.351 0.091 0.236 0.198 0.465 0.32 0.686z"></path>
<path fill="#c4a386" style="fill: var(--color1, #c4a386)" d="M3.362 17.384c0.409-0.137 0.753-0.421 0.964-0.797 0.051-0.087 0.095-0.177 0.132-0.271 0.046-0.092 0.086-0.186 0.12-0.283 0.063-0.186 0.111-0.377 0.144-0.57 0.036-0.187 0.076-0.371 0.096-0.538 0-0.088 0-0.167 0.024-0.243s0-0.147 0-0.215c0.022-0.145 0.035-0.292 0.040-0.439 0 0-0.176 0.1-0.428 0.279l-0.204 0.151c-0.072 0.060-0.144 0.12-0.216 0.187-0.156 0.139-0.302 0.29-0.436 0.45-0.068 0.084-0.136 0.171-0.2 0.263l-0.088 0.14-0.076 0.148c-0.095 0.191-0.165 0.393-0.208 0.602-0.022 0.101-0.033 0.204-0.032 0.307 0.006 0.1 0.022 0.199 0.048 0.295 0.057 0.203 0.168 0.387 0.32 0.534z"></path>
<path fill="#c4a386" style="fill: var(--color1, #c4a386)" d="M1.699 11.636c-0.108-0.207-0.224-0.399-0.336-0.594l-0.308-0.498c-0.18-0.291-0.312-0.478-0.312-0.478s-0.068 0.227-0.14 0.578c-0.024 0.179-0.052 0.399-0.068 0.618 0 0.112 0 0.231 0 0.351s0 0.243 0 0.367c0.019 0.247 0.060 0.493 0.12 0.734 0.063 0.231 0.157 0.452 0.28 0.658 0.11 0.192 0.264 0.356 0.448 0.479s0.395 0.202 0.615 0.23c0.060-0.091 0.108-0.188 0.144-0.291 0.038-0.096 0.065-0.197 0.080-0.299 0.031-0.205 0.021-0.413-0.028-0.614-0.046-0.216-0.111-0.426-0.196-0.63-0.088-0.211-0.196-0.427-0.3-0.61z"></path>
<path fill="#c4a386" style="fill: var(--color1, #c4a386)" d="M4.286 13.437c0.141-0.138 0.265-0.294 0.368-0.462 0.112-0.158 0.21-0.326 0.292-0.502 0.044-0.084 0.076-0.167 0.116-0.247l0.104-0.239c0.064-0.155 0.112-0.299 0.156-0.423 0.092-0.243 0.136-0.399 0.136-0.399-0.167 0.043-0.331 0.095-0.492 0.155-0.36 0.135-0.7 0.317-1.011 0.542-0.091 0.062-0.178 0.13-0.26 0.203-0.080 0.073-0.156 0.15-0.228 0.231-0.143 0.16-0.263 0.34-0.356 0.534-0.082 0.183-0.124 0.381-0.124 0.582-0.003 0.1 0.011 0.199 0.040 0.295 0.033 0.102 0.079 0.2 0.136 0.291 0.429-0.050 0.827-0.249 1.123-0.562z"></path>
<path fill="#c4a386" style="fill: var(--color1, #c4a386)" d="M2.882 10.352c0.062-0.081 0.115-0.169 0.156-0.263 0.039-0.092 0.069-0.188 0.088-0.287 0-0.1 0.028-0.203 0.040-0.307 0.013-0.217 0.001-0.435-0.036-0.65-0.030-0.23-0.075-0.457-0.132-0.682-0.116-0.454-0.24-0.881-0.356-1.196s-0.188-0.554-0.188-0.554-0.032 0.052-0.080 0.14c-0.048 0.088-0.112 0.223-0.188 0.399-0.181 0.401-0.315 0.821-0.4 1.252-0.040 0.239-0.062 0.48-0.068 0.722 0.001 0.12 0.011 0.24 0.028 0.359 0.019 0.114 0.044 0.227 0.076 0.339 0.058 0.212 0.162 0.41 0.304 0.578 0.145 0.176 0.332 0.313 0.544 0.399 0.082-0.072 0.153-0.156 0.212-0.247z"></path>
<path fill="#c4a386" style="fill: var(--color1, #c4a386)" d="M6.673 8.622c0.044-0.064 0.064-0.1 0.064-0.1h-0.14c-0.096 0-0.22 0-0.372 0.032s-0.332 0.048-0.524 0.092c-0.096 0.020-0.196 0.048-0.296 0.076s-0.196 0.068-0.296 0.108c-0.205 0.077-0.4 0.176-0.584 0.295-0.175 0.112-0.335 0.246-0.476 0.399-0.065 0.077-0.12 0.161-0.164 0.251-0.043 0.088-0.078 0.18-0.104 0.275-0.027 0.096-0.041 0.195-0.040 0.295 0.009 0.107 0.029 0.212 0.060 0.315 0.218 0.042 0.442 0.042 0.66 0 0.199-0.045 0.39-0.119 0.568-0.219 0.084-0.052 0.168-0.104 0.248-0.163l0.112-0.092 0.116-0.096c0.144-0.121 0.278-0.255 0.4-0.399 0.12-0.126 0.232-0.259 0.336-0.399l0.072-0.104 0.068-0.092c0.048-0.064 0.088-0.124 0.124-0.175s0.132-0.231 0.168-0.299z"></path>
<path fill="#c4a386" style="fill: var(--color1, #c4a386)" d="M4.186 7.418c0.189-0.092 0.352-0.229 0.476-0.399 0.124-0.162 0.215-0.346 0.268-0.542 0.218-0.837 0.16-1.727 0.084-2.579-0.036-0.331-0.072-0.554-0.072-0.554-0.162 0.125-0.284 0.271-0.404 0.438-0.121 0.158-0.233 0.323-0.336 0.494-0.119 0.199-0.226 0.406-0.32 0.618-0.095 0.222-0.171 0.451-0.228 0.686-0.047 0.228-0.066 0.461-0.056 0.694 0.006 0.222 0.061 0.441 0.163 0.639s0.247 0.371 0.425 0.505z"></path>
<path fill="#c4a386" style="fill: var(--color1, #c4a386)" d="M7.544 7.179c0.156-0.116 0.3-0.227 0.428-0.339s0.248-0.219 0.34-0.311c0.092-0.092 0.176-0.171 0.228-0.227l0.084-0.088c-0.169-0.034-0.34-0.059-0.512-0.076s-0.344-0.023-0.516-0.020c-0.209-0.001-0.417 0.015-0.624 0.048-0.431 0.050-0.843 0.205-1.199 0.45-0.161 0.121-0.297 0.273-0.4 0.446-0.090 0.182-0.133 0.383-0.124 0.586 0.395 0.17 0.837 0.193 1.247 0.064 0.192-0.056 0.377-0.133 0.552-0.231 0.173-0.088 0.338-0.19 0.496-0.303z"></path>
<path fill="#c4a386" style="fill: var(--color1, #c4a386)" d="M6.267 5.363c0.235 0 0.602 0.022 0.901-0.185 0.081-0.059 0.158-0.123 0.232-0.191 0.077-0.068 0.149-0.141 0.216-0.219 0.144-0.155 0.278-0.321 0.4-0.494 0.232-0.343 0.432-0.698 0.576-0.965 0.072-0.132 0.122-0.247 0.162-0.327l0.027-0.068 0.015-0.048-0.186 0.013c-0.124 0.016-0.196 0.027-0.317 0.059-0.382 0.097-0.75 0.241-1.095 0.431-0.399 0.206-0.744 0.502-1.007 0.865-0.122 0.172-0.204 0.37-0.24 0.578-0.040 0.174-0.039 0.35 0 0.53z"></path>
<path fill="#c4a386" style="fill: var(--color1, #c4a386)" d="M20.558 28.155c0.184-0.144 0.389-0.26 0.608-0.343 0.205-0.072 0.419-0.112 0.636-0.12 0.47-0.005 0.938 0.054 1.391 0.176 0.464 0.116 0.908 0.251 1.235 0.363s0.544 0.195 0.544 0.195-0.212 0.12-0.548 0.263c-0.421 0.182-0.86 0.316-1.311 0.399-0.51 0.1-1.035 0.088-1.539-0.036-0.232-0.050-0.448-0.158-0.626-0.315s-0.312-0.357-0.39-0.581z"></path>
<path fill="#c4a386" style="fill: var(--color1, #c4a386)" d="M21.973 26.106c-0.173 0.414-0.448 0.778-0.8 1.056-0.167 0.129-0.361 0.219-0.568 0.263-0.213 0.043-0.434 0.023-0.636-0.060-0.014-0.422 0.1-0.839 0.328-1.196 0.217-0.331 0.487-0.625 0.8-0.869 0.271-0.218 0.556-0.419 0.852-0.602 0.236-0.148 0.4-0.231 0.4-0.231s0 0.052 0 0.144c0 0.092-0.024 0.215-0.052 0.375-0.062 0.385-0.17 0.761-0.324 1.12z"></path>
<path fill="#c4a386" style="fill: var(--color1, #c4a386)" d="M25.308 27.182c-0.226-0.003-0.448-0.057-0.65-0.158s-0.377-0.248-0.513-0.428c0.106-0.188 0.25-0.352 0.422-0.483s0.368-0.226 0.578-0.279c0.452-0.121 0.919-0.181 1.387-0.179 0.476 0 0.951 0 1.307 0h0.596c0 0-0.044 0.052-0.124 0.132s-0.204 0.187-0.356 0.311c-0.366 0.3-0.769 0.552-1.199 0.749-0.45 0.222-0.945 0.336-1.447 0.335z"></path>
<path fill="#c4a386" style="fill: var(--color1, #c4a386)" d="M24.404 25.36c-0.124 0.17-0.288 0.307-0.478 0.399s-0.399 0.136-0.61 0.128c-0.166-0.4-0.176-0.848-0.028-1.256 0.142-0.374 0.342-0.724 0.592-1.036 0.228-0.311 0.46-0.578 0.628-0.765 0.084-0.1 0.156-0.176 0.204-0.227l0.076-0.080c0 0 0 0.048 0.040 0.132 0.030 0.12 0.054 0.241 0.072 0.363 0.059 0.382 0.059 0.77 0 1.152-0.063 0.432-0.233 0.842-0.496 1.192z"></path>
<path fill="#c4a386" style="fill: var(--color1, #c4a386)" d="M30.105 22.040c0.328-0.104 0.544-0.163 0.544-0.163s-0.020 0.056-0.064 0.147c-0.044 0.092-0.112 0.215-0.196 0.367s-0.188 0.327-0.308 0.51c-0.060 0.092-0.124 0.183-0.192 0.279l-0.052 0.072-0.068 0.088-0.14 0.176c-0.345 0.434-0.805 0.764-1.327 0.953-0.216 0.080-0.449 0.104-0.677 0.071s-0.445-0.122-0.63-0.259c0.107-0.426 0.364-0.8 0.724-1.052 0.084-0.068 0.18-0.132 0.276-0.199l0.304-0.191 0.324-0.187c0.1-0.056 0.204-0.107 0.308-0.155 0.381-0.177 0.774-0.329 1.175-0.454z"></path>
<path fill="#c4a386" style="fill: var(--color1, #c4a386)" d="M26.882 22.861c-0.054 0.202-0.162 0.385-0.312 0.531s-0.336 0.249-0.54 0.298c-0.264-0.334-0.414-0.743-0.428-1.168-0.011-0.354 0.014-0.707 0.072-1.056 0.024-0.177 0.061-0.351 0.112-0.522 0.052-0.175 0.104-0.335 0.156-0.466s0.096-0.243 0.128-0.319l0.044-0.12 0.084 0.12c0.052 0.080 0.116 0.191 0.188 0.331 0.186 0.355 0.335 0.727 0.444 1.112 0.028 0.108 0.056 0.219 0.080 0.331 0.021 0.105 0.036 0.212 0.044 0.319 0.010 0.106 0.010 0.213 0 0.319-0.015 0.099-0.039 0.197-0.072 0.291z"></path>
<path fill="#c4a386" style="fill: var(--color1, #c4a386)" d="M30.609 20.405c-0.078 0.091-0.164 0.175-0.256 0.251-0.087 0.075-0.179 0.143-0.276 0.203-0.181 0.132-0.39 0.221-0.611 0.261s-0.448 0.030-0.664-0.030c-0.038-0.213-0.024-0.431 0.040-0.638 0.030-0.098 0.071-0.191 0.124-0.279 0.052-0.091 0.11-0.179 0.172-0.263 0.287-0.359 0.633-0.666 1.023-0.909 0.344-0.242 0.702-0.464 1.071-0.666l0.504-0.271c0 0 0 0.060-0.032 0.159s-0.068 0.239-0.128 0.399c-0.128 0.42-0.31 0.822-0.54 1.196-0.128 0.206-0.271 0.402-0.428 0.586z"></path>
<path fill="#c4a386" style="fill: var(--color1, #c4a386)" d="M28.106 20.238c-0.090 0.189-0.228 0.351-0.4 0.47-0.384-0.215-0.671-0.569-0.8-0.989-0.032-0.098-0.057-0.198-0.076-0.299l-0.024-0.151c0-0.048 0-0.1-0.024-0.151-0.024-0.204-0.032-0.409-0.024-0.614 0.013-0.347 0.047-0.693 0.1-1.036 0.024-0.136 0.048-0.247 0.064-0.323s0.024-0.12 0.024-0.12l0.1 0.1c0.089 0.088 0.173 0.181 0.252 0.279 0.248 0.303 0.462 0.632 0.64 0.981 0.195 0.393 0.3 0.825 0.308 1.264-0.001 0.104-0.014 0.207-0.040 0.307-0.023 0.098-0.056 0.193-0.1 0.283z"></path>
<path fill="#c4a386" style="fill: var(--color1, #c4a386)" d="M31.416 16.618c-0.056 0.106-0.12 0.207-0.192 0.303-0.072 0.093-0.151 0.181-0.236 0.263-0.153 0.161-0.34 0.285-0.548 0.365s-0.43 0.111-0.652 0.094c-0.079-0.2-0.108-0.416-0.084-0.63 0.012-0.102 0.035-0.202 0.068-0.299 0.026-0.101 0.059-0.199 0.1-0.295 0.096-0.202 0.216-0.392 0.356-0.566l0.216-0.271c0.072-0.092 0.152-0.179 0.228-0.267 0.316-0.343 0.66-0.662 0.904-0.897s0.424-0.391 0.424-0.391c0 0 0 0.239 0 0.598-0.019 0.206-0.048 0.411-0.088 0.614-0.024 0.112-0.048 0.227-0.076 0.343-0.026 0.119-0.059 0.236-0.1 0.351-0.091 0.236-0.197 0.465-0.32 0.686z"></path>
<path fill="#c4a386" style="fill: var(--color1, #c4a386)" d="M28.638 17.384c-0.41-0.137-0.753-0.421-0.964-0.797-0.051-0.087-0.095-0.177-0.132-0.271-0.046-0.092-0.086-0.186-0.12-0.283-0.063-0.186-0.111-0.377-0.144-0.57-0.036-0.187-0.076-0.371-0.096-0.538 0-0.088 0-0.167-0.024-0.243s0-0.147 0-0.215c-0.022-0.145-0.035-0.292-0.040-0.439 0 0 0.176 0.1 0.428 0.279l0.204 0.151c0.072 0.060 0.144 0.12 0.216 0.187 0.156 0.139 0.302 0.29 0.436 0.45 0.068 0.084 0.136 0.171 0.2 0.263l0.088 0.14 0.076 0.148c0.095 0.191 0.165 0.393 0.208 0.602 0.022 0.101 0.033 0.204 0.032 0.307-0.006 0.1-0.022 0.199-0.048 0.295-0.057 0.203-0.168 0.387-0.32 0.534z"></path>
<path fill="#c4a386" style="fill: var(--color1, #c4a386)" d="M30.301 11.636c0.108-0.207 0.224-0.399 0.336-0.594l0.308-0.498c0.18-0.291 0.312-0.478 0.312-0.478s0.068 0.227 0.14 0.578c0.024 0.179 0.052 0.399 0.068 0.618 0 0.112 0 0.231 0 0.351s0 0.243 0 0.367c-0.019 0.247-0.060 0.493-0.12 0.734-0.063 0.231-0.157 0.452-0.28 0.658-0.11 0.192-0.264 0.356-0.448 0.479s-0.395 0.202-0.615 0.23c-0.060-0.091-0.108-0.188-0.144-0.291-0.038-0.096-0.065-0.197-0.080-0.299-0.031-0.205-0.021-0.413 0.028-0.614 0.046-0.216 0.111-0.426 0.196-0.63 0.088-0.211 0.196-0.427 0.3-0.61z"></path>
<path fill="#c4a386" style="fill: var(--color1, #c4a386)" d="M27.714 13.437c-0.141-0.138-0.265-0.294-0.368-0.462-0.112-0.158-0.21-0.326-0.292-0.502-0.044-0.084-0.076-0.167-0.116-0.247l-0.104-0.239c-0.064-0.155-0.112-0.299-0.156-0.423-0.092-0.243-0.136-0.399-0.136-0.399 0.167 0.043 0.331 0.095 0.492 0.155 0.36 0.135 0.7 0.317 1.011 0.542 0.091 0.062 0.178 0.13 0.26 0.203 0.080 0.073 0.156 0.15 0.228 0.231 0.143 0.16 0.263 0.34 0.356 0.534 0.082 0.183 0.124 0.381 0.124 0.582 0.003 0.1-0.011 0.199-0.040 0.295-0.033 0.102-0.079 0.2-0.136 0.291-0.429-0.050-0.827-0.249-1.123-0.562z"></path>
<path fill="#c4a386" style="fill: var(--color1, #c4a386)" d="M29.118 10.352c-0.062-0.081-0.115-0.169-0.156-0.263-0.039-0.092-0.069-0.188-0.088-0.287 0-0.1-0.028-0.203-0.040-0.307-0.013-0.217-0.001-0.435 0.036-0.65 0.030-0.23 0.075-0.457 0.132-0.682 0.116-0.454 0.24-0.881 0.356-1.196s0.188-0.554 0.188-0.554 0.032 0.052 0.080 0.14c0.048 0.088 0.112 0.223 0.188 0.399 0.181 0.401 0.315 0.821 0.4 1.252 0.040 0.239 0.062 0.48 0.068 0.722-0.001 0.12-0.011 0.24-0.028 0.359-0.019 0.114-0.044 0.227-0.076 0.339-0.058 0.212-0.162 0.41-0.304 0.578-0.145 0.176-0.332 0.313-0.544 0.399-0.082-0.072-0.153-0.156-0.212-0.247z"></path>
<path fill="#c4a386" style="fill: var(--color1, #c4a386)" d="M25.327 8.622c-0.044-0.064-0.064-0.1-0.064-0.1h0.14c0.096 0 0.22 0 0.372 0.032s0.332 0.048 0.524 0.092c0.096 0.020 0.196 0.048 0.296 0.076s0.196 0.068 0.296 0.108c0.205 0.077 0.4 0.176 0.584 0.295 0.175 0.112 0.335 0.246 0.476 0.399 0.065 0.077 0.12 0.161 0.164 0.251 0.043 0.088 0.078 0.18 0.104 0.275 0.027 0.096 0.041 0.195 0.040 0.295-0.009 0.107-0.029 0.212-0.060 0.315-0.218 0.042-0.442 0.042-0.66 0-0.199-0.045-0.39-0.119-0.568-0.219-0.084-0.052-0.168-0.104-0.248-0.163l-0.112-0.092-0.116-0.096c-0.144-0.121-0.278-0.255-0.4-0.399-0.12-0.126-0.232-0.259-0.336-0.399l-0.072-0.104-0.068-0.092c-0.048-0.064-0.088-0.124-0.124-0.175s-0.132-0.231-0.168-0.299z"></path>
<path fill="#c4a386" style="fill: var(--color1, #c4a386)" d="M27.814 7.418c-0.189-0.092-0.352-0.229-0.476-0.399-0.124-0.162-0.215-0.346-0.268-0.542-0.218-0.837-0.16-1.727-0.084-2.579 0.036-0.331 0.072-0.554 0.072-0.554 0.162 0.125 0.284 0.271 0.404 0.438 0.121 0.158 0.233 0.323 0.336 0.494 0.119 0.199 0.226 0.406 0.32 0.618 0.095 0.222 0.171 0.451 0.228 0.686 0.047 0.228 0.066 0.461 0.056 0.694-0.006 0.222-0.061 0.441-0.163 0.639s-0.247 0.371-0.425 0.505z"></path>
<path fill="#c4a386" style="fill: var(--color1, #c4a386)" d="M24.456 7.179c-0.156-0.116-0.3-0.227-0.428-0.339s-0.248-0.219-0.34-0.311-0.176-0.171-0.228-0.227l-0.084-0.088c0.169-0.034 0.34-0.059 0.512-0.076s0.344-0.023 0.516-0.020c0.209-0.001 0.417 0.015 0.624 0.048 0.431 0.050 0.843 0.205 1.199 0.45 0.161 0.121 0.297 0.273 0.4 0.446 0.090 0.182 0.133 0.383 0.124 0.586-0.395 0.17-0.837 0.193-1.247 0.064-0.192-0.056-0.377-0.133-0.552-0.231-0.173-0.088-0.338-0.19-0.496-0.303z"></path>
<path fill="#c4a386" style="fill: var(--color1, #c4a386)" d="M25.733 5.363c-0.235 0-0.602 0.022-0.901-0.185-0.081-0.059-0.158-0.123-0.232-0.191-0.077-0.068-0.149-0.141-0.216-0.219-0.144-0.155-0.278-0.321-0.4-0.494-0.232-0.343-0.432-0.698-0.576-0.965-0.072-0.132-0.122-0.247-0.162-0.327l-0.027-0.068-0.015-0.048 0.186 0.013c0.124 0.016 0.196 0.027 0.317 0.059 0.382 0.097 0.75 0.241 1.095 0.431 0.399 0.206 0.744 0.502 1.007 0.865 0.122 0.172 0.204 0.37 0.24 0.578 0.040 0.174 0.039 0.35 0 0.53z"></path>
<path fill="#c4a386" style="fill: var(--color1, #c4a386)" d="M16.634 12.232v-1.042c0.845-0.285 1.397-0.962 1.414-1.789h-1.258c-0.011 0.202-0.099 0.392-0.246 0.531s-0.342 0.215-0.544 0.214c-0.202 0.002-0.397-0.075-0.544-0.213s-0.235-0.329-0.246-0.531h-1.258c0.017 0.827 0.569 1.505 1.414 1.789v1.042c-1.1 0.16-2.099 0.732-2.796 1.6s-1.039 1.968-0.959 3.079c0.080 1.111 0.577 2.15 1.392 2.909s1.885 1.18 2.997 1.18 2.183-0.422 2.997-1.18c0.814-0.759 1.311-1.798 1.392-2.909s-0.262-2.211-0.959-3.079c-0.697-0.868-1.696-1.44-2.796-1.6v0zM16 19.828c-0.748-0.001-1.473-0.261-2.051-0.737s-0.973-1.138-1.118-1.873h1.301c0.283 0.845 1.012 1.403 1.85 1.411v-1.261c-0.207 0-0.406-0.082-0.553-0.229s-0.229-0.346-0.229-0.554c0-0.208 0.082-0.407 0.229-0.554s0.345-0.229 0.553-0.229v-1.261c-0.838 0.008-1.568 0.566-1.85 1.411h-1.298c0.121-0.6 0.41-1.154 0.833-1.596s0.962-0.755 1.556-0.903c0.593-0.147 1.216-0.123 1.796 0.070s1.094 0.547 1.481 1.021c0.387 0.474 0.632 1.048 0.706 1.656s-0.026 1.224-0.287 1.778c-0.262 0.553-0.675 1.021-1.192 1.348s-1.115 0.501-1.727 0.501v0z"></path>
</symbol>
<symbol id="good-design-award" viewBox="0 0 32 32">
<path fill="#c4a386" style="fill: var(--color1, #c4a386)" d="M11.442 28.155c-0.184-0.144-0.389-0.26-0.608-0.343-0.205-0.072-0.419-0.112-0.636-0.12-0.47-0.005-0.938 0.054-1.391 0.176-0.464 0.116-0.908 0.251-1.235 0.363s-0.544 0.195-0.544 0.195 0.212 0.12 0.548 0.263c0.42 0.182 0.86 0.316 1.311 0.399 0.51 0.1 1.035 0.088 1.539-0.036 0.232-0.050 0.448-0.158 0.626-0.315s0.312-0.357 0.39-0.581z"></path>
<path fill="#c4a386" style="fill: var(--color1, #c4a386)" d="M10.027 26.106c0.173 0.414 0.448 0.778 0.8 1.056 0.167 0.129 0.361 0.219 0.568 0.263 0.213 0.043 0.434 0.023 0.636-0.060 0.014-0.422-0.1-0.839-0.328-1.196-0.217-0.331-0.487-0.625-0.8-0.869-0.271-0.218-0.556-0.419-0.852-0.602-0.236-0.148-0.4-0.231-0.4-0.231s0 0.052 0 0.144c0 0.092 0.024 0.215 0.052 0.375 0.062 0.385 0.171 0.761 0.324 1.12z"></path>
<path fill="#c4a386" style="fill: var(--color1, #c4a386)" d="M6.692 27.182c0.226-0.003 0.448-0.057 0.65-0.158s0.377-0.248 0.513-0.428c-0.106-0.188-0.25-0.352-0.422-0.483s-0.368-0.226-0.578-0.279c-0.452-0.121-0.919-0.181-1.387-0.179-0.476 0-0.952 0-1.307 0h-0.596c0 0 0.044 0.052 0.124 0.132s0.204 0.187 0.356 0.311c0.366 0.3 0.769 0.552 1.199 0.749 0.45 0.222 0.945 0.336 1.447 0.335z"></path>
<path fill="#c4a386" style="fill: var(--color1, #c4a386)" d="M7.596 25.36c0.124 0.17 0.288 0.307 0.478 0.399s0.399 0.136 0.61 0.128c0.166-0.4 0.176-0.848 0.028-1.256-0.142-0.374-0.342-0.724-0.592-1.036-0.228-0.311-0.46-0.578-0.628-0.765-0.084-0.1-0.156-0.176-0.204-0.227l-0.076-0.080c0 0 0 0.048-0.040 0.132-0.030 0.12-0.054 0.241-0.072 0.363-0.059 0.382-0.059 0.77 0 1.152 0.063 0.432 0.233 0.842 0.496 1.192z"></path>
<path fill="#c4a386" style="fill: var(--color1, #c4a386)" d="M1.895 22.040c-0.328-0.104-0.544-0.163-0.544-0.163s0.020 0.056 0.064 0.147c0.044 0.092 0.112 0.215 0.196 0.367s0.188 0.327 0.308 0.51c0.060 0.092 0.124 0.183 0.192 0.279l0.052 0.072 0.068 0.088 0.14 0.176c0.345 0.434 0.805 0.764 1.327 0.953 0.216 0.080 0.449 0.104 0.677 0.071s0.445-0.122 0.63-0.259c-0.107-0.426-0.364-0.8-0.724-1.052-0.084-0.068-0.18-0.132-0.276-0.199l-0.304-0.191-0.324-0.187c-0.1-0.056-0.204-0.107-0.308-0.155-0.381-0.177-0.774-0.329-1.175-0.454z"></path>
<path fill="#c4a386" style="fill: var(--color1, #c4a386)" d="M5.117 22.861c0.054 0.202 0.162 0.385 0.312 0.531s0.336 0.249 0.54 0.298c0.264-0.334 0.414-0.743 0.428-1.168 0.011-0.354-0.014-0.707-0.072-1.056-0.024-0.177-0.061-0.351-0.112-0.522-0.052-0.175-0.104-0.335-0.156-0.466s-0.096-0.243-0.128-0.319l-0.044-0.12-0.084 0.12c-0.052 0.080-0.116 0.191-0.188 0.331-0.186 0.355-0.334 0.727-0.444 1.112-0.028 0.108-0.056 0.219-0.080 0.331-0.021 0.105-0.035 0.212-0.044 0.319-0.010 0.106-0.010 0.213 0 0.319 0.015 0.099 0.039 0.197 0.072 0.291z"></path>
<path fill="#c4a386" style="fill: var(--color1, #c4a386)" d="M1.391 20.405c0.078 0.091 0.164 0.175 0.256 0.251 0.087 0.075 0.179 0.143 0.276 0.203 0.181 0.132 0.39 0.221 0.611 0.261s0.448 0.030 0.664-0.030c0.038-0.213 0.024-0.431-0.040-0.638-0.030-0.098-0.071-0.191-0.124-0.279-0.052-0.091-0.11-0.179-0.172-0.263-0.287-0.359-0.633-0.666-1.023-0.909-0.344-0.242-0.702-0.464-1.071-0.666l-0.504-0.271c0 0 0 0.060 0.032 0.159s0.068 0.239 0.128 0.399c0.128 0.42 0.31 0.822 0.54 1.196 0.128 0.206 0.271 0.402 0.428 0.586z"></path>
<path fill="#c4a386" style="fill: var(--color1, #c4a386)" d="M3.894 20.238c0.090 0.189 0.228 0.351 0.4 0.47 0.384-0.215 0.671-0.569 0.8-0.989 0.032-0.098 0.057-0.198 0.076-0.299l0.024-0.151c0-0.048 0-0.1 0.024-0.151 0.024-0.204 0.032-0.409 0.024-0.614-0.013-0.347-0.047-0.693-0.1-1.036-0.024-0.136-0.048-0.247-0.064-0.323s-0.024-0.12-0.024-0.12l-0.1 0.1c-0.089 0.088-0.173 0.181-0.252 0.279-0.248 0.303-0.462 0.632-0.64 0.981-0.195 0.393-0.3 0.825-0.308 1.264 0.001 0.104 0.014 0.207 0.040 0.307 0.023 0.098 0.056 0.193 0.1 0.283z"></path>
<path fill="#c4a386" style="fill: var(--color1, #c4a386)" d="M0.584 16.618c0.056 0.106 0.12 0.207 0.192 0.303 0.072 0.093 0.151 0.181 0.236 0.263 0.153 0.161 0.34 0.285 0.548 0.365s0.43 0.111 0.652 0.094c0.079-0.2 0.108-0.416 0.084-0.63-0.012-0.102-0.035-0.202-0.068-0.299-0.026-0.101-0.059-0.199-0.1-0.295-0.096-0.202-0.216-0.392-0.356-0.566l-0.216-0.271c-0.072-0.092-0.152-0.179-0.228-0.267-0.316-0.343-0.66-0.662-0.904-0.897s-0.424-0.391-0.424-0.391c0 0 0 0.239 0 0.598 0.019 0.206 0.048 0.411 0.088 0.614 0.024 0.112 0.048 0.227 0.076 0.343 0.026 0.119 0.059 0.236 0.1 0.351 0.091 0.236 0.198 0.465 0.32 0.686z"></path>
<path fill="#c4a386" style="fill: var(--color1, #c4a386)" d="M3.362 17.384c0.409-0.137 0.753-0.421 0.964-0.797 0.051-0.087 0.095-0.177 0.132-0.271 0.046-0.092 0.086-0.186 0.12-0.283 0.063-0.186 0.111-0.377 0.144-0.57 0.036-0.187 0.076-0.371 0.096-0.538 0-0.088 0-0.167 0.024-0.243s0-0.147 0-0.215c0.022-0.145 0.035-0.292 0.040-0.439 0 0-0.176 0.1-0.428 0.279l-0.204 0.151c-0.072 0.060-0.144 0.12-0.216 0.187-0.156 0.139-0.302 0.29-0.436 0.45-0.068 0.084-0.136 0.171-0.2 0.263l-0.088 0.14-0.076 0.148c-0.095 0.191-0.165 0.393-0.208 0.602-0.022 0.101-0.033 0.204-0.032 0.307 0.006 0.1 0.022 0.199 0.048 0.295 0.057 0.203 0.168 0.387 0.32 0.534z"></path>
<path fill="#c4a386" style="fill: var(--color1, #c4a386)" d="M1.699 11.636c-0.108-0.207-0.224-0.399-0.336-0.594l-0.308-0.498c-0.18-0.291-0.312-0.478-0.312-0.478s-0.068 0.227-0.14 0.578c-0.024 0.179-0.052 0.399-0.068 0.618 0 0.112 0 0.231 0 0.351s0 0.243 0 0.367c0.019 0.247 0.060 0.493 0.12 0.734 0.063 0.231 0.157 0.452 0.28 0.658 0.11 0.192 0.264 0.356 0.448 0.479s0.395 0.202 0.615 0.23c0.060-0.091 0.108-0.188 0.144-0.291 0.038-0.096 0.065-0.197 0.080-0.299 0.031-0.205 0.021-0.413-0.028-0.614-0.046-0.216-0.111-0.426-0.196-0.63-0.088-0.211-0.196-0.427-0.3-0.61z"></path>
<path fill="#c4a386" style="fill: var(--color1, #c4a386)" d="M4.286 13.437c0.141-0.138 0.265-0.294 0.368-0.462 0.112-0.158 0.21-0.326 0.292-0.502 0.044-0.084 0.076-0.167 0.116-0.247l0.104-0.239c0.064-0.155 0.112-0.299 0.156-0.423 0.092-0.243 0.136-0.399 0.136-0.399-0.167 0.043-0.331 0.095-0.492 0.155-0.36 0.135-0.7 0.317-1.011 0.542-0.091 0.062-0.178 0.13-0.26 0.203-0.080 0.073-0.156 0.15-0.228 0.231-0.143 0.16-0.263 0.34-0.356 0.534-0.082 0.183-0.124 0.381-0.124 0.582-0.003 0.1 0.011 0.199 0.040 0.295 0.033 0.102 0.079 0.2 0.136 0.291 0.429-0.050 0.827-0.249 1.123-0.562z"></path>
<path fill="#c4a386" style="fill: var(--color1, #c4a386)" d="M2.882 10.352c0.062-0.081 0.115-0.169 0.156-0.263 0.039-0.092 0.069-0.188 0.088-0.287 0-0.1 0.028-0.203 0.040-0.307 0.013-0.217 0.001-0.435-0.036-0.65-0.030-0.23-0.075-0.457-0.132-0.682-0.116-0.454-0.24-0.881-0.356-1.196s-0.188-0.554-0.188-0.554-0.032 0.052-0.080 0.14c-0.048 0.088-0.112 0.223-0.188 0.399-0.181 0.401-0.315 0.821-0.4 1.252-0.040 0.239-0.062 0.48-0.068 0.722 0.001 0.12 0.011 0.24 0.028 0.359 0.019 0.114 0.044 0.227 0.076 0.339 0.058 0.212 0.162 0.41 0.304 0.578 0.145 0.176 0.332 0.313 0.544 0.399 0.082-0.072 0.153-0.156 0.212-0.247z"></path>
<path fill="#c4a386" style="fill: var(--color1, #c4a386)" d="M6.673 8.622c0.044-0.064 0.064-0.1 0.064-0.1h-0.14c-0.096 0-0.22 0-0.372 0.032s-0.332 0.048-0.524 0.092c-0.096 0.020-0.196 0.048-0.296 0.076s-0.196 0.068-0.296 0.108c-0.205 0.077-0.4 0.176-0.584 0.295-0.175 0.112-0.335 0.246-0.476 0.399-0.065 0.077-0.12 0.161-0.164 0.251-0.043 0.088-0.078 0.18-0.104 0.275-0.027 0.096-0.041 0.195-0.040 0.295 0.009 0.107 0.029 0.212 0.060 0.315 0.218 0.042 0.442 0.042 0.66 0 0.199-0.045 0.39-0.119 0.568-0.219 0.084-0.052 0.168-0.104 0.248-0.163l0.112-0.092 0.116-0.096c0.144-0.121 0.278-0.255 0.4-0.399 0.12-0.126 0.232-0.259 0.336-0.399l0.072-0.104 0.068-0.092c0.048-0.064 0.088-0.124 0.124-0.175s0.132-0.231 0.168-0.299z"></path>
<path fill="#c4a386" style="fill: var(--color1, #c4a386)" d="M4.186 7.418c0.189-0.092 0.352-0.229 0.476-0.399 0.124-0.162 0.215-0.346 0.268-0.542 0.218-0.837 0.16-1.727 0.084-2.579-0.036-0.331-0.072-0.554-0.072-0.554-0.162 0.125-0.284 0.271-0.404 0.438-0.121 0.158-0.233 0.323-0.336 0.494-0.119 0.199-0.226 0.406-0.32 0.618-0.095 0.222-0.171 0.451-0.228 0.686-0.047 0.228-0.066 0.461-0.056 0.694 0.006 0.222 0.061 0.441 0.163 0.639s0.247 0.371 0.425 0.505z"></path>
<path fill="#c4a386" style="fill: var(--color1, #c4a386)" d="M7.544 7.179c0.156-0.116 0.3-0.227 0.428-0.339s0.248-0.219 0.34-0.311c0.092-0.092 0.176-0.171 0.228-0.227l0.084-0.088c-0.169-0.034-0.34-0.059-0.512-0.076s-0.344-0.023-0.516-0.020c-0.209-0.001-0.417 0.015-0.624 0.048-0.431 0.050-0.843 0.205-1.199 0.45-0.161 0.121-0.297 0.273-0.4 0.446-0.090 0.182-0.133 0.383-0.124 0.586 0.395 0.17 0.837 0.193 1.247 0.064 0.192-0.056 0.377-0.133 0.552-0.231 0.173-0.088 0.338-0.19 0.496-0.303z"></path>
<path fill="#c4a386" style="fill: var(--color1, #c4a386)" d="M6.267 5.363c0.235 0 0.602 0.022 0.901-0.185 0.081-0.059 0.158-0.123 0.232-0.191 0.077-0.068 0.149-0.141 0.216-0.219 0.144-0.155 0.278-0.321 0.4-0.494 0.232-0.343 0.432-0.698 0.576-0.965 0.072-0.132 0.122-0.247 0.162-0.327l0.027-0.068 0.015-0.048-0.186 0.013c-0.124 0.016-0.196 0.027-0.317 0.059-0.382 0.097-0.75 0.241-1.095 0.431-0.399 0.206-0.744 0.502-1.007 0.865-0.122 0.172-0.204 0.37-0.24 0.578-0.040 0.174-0.039 0.35 0 0.53z"></path>
<path fill="#c4a386" style="fill: var(--color1, #c4a386)" d="M20.558 28.155c0.184-0.144 0.389-0.26 0.608-0.343 0.205-0.072 0.419-0.112 0.636-0.12 0.47-0.005 0.938 0.054 1.391 0.176 0.464 0.116 0.908 0.251 1.235 0.363s0.544 0.195 0.544 0.195-0.212 0.12-0.548 0.263c-0.421 0.182-0.86 0.316-1.311 0.399-0.51 0.1-1.035 0.088-1.539-0.036-0.232-0.050-0.448-0.158-0.626-0.315s-0.312-0.357-0.39-0.581z"></path>
<path fill="#c4a386" style="fill: var(--color1, #c4a386)" d="M21.973 26.106c-0.173 0.414-0.448 0.778-0.8 1.056-0.167 0.129-0.361 0.219-0.568 0.263-0.213 0.043-0.434 0.023-0.636-0.060-0.014-0.422 0.1-0.839 0.328-1.196 0.217-0.331 0.487-0.625 0.8-0.869 0.271-0.218 0.556-0.419 0.852-0.602 0.236-0.148 0.4-0.231 0.4-0.231s0 0.052 0 0.144c0 0.092-0.024 0.215-0.052 0.375-0.062 0.385-0.17 0.761-0.324 1.12z"></path>
<path fill="#c4a386" style="fill: var(--color1, #c4a386)" d="M25.308 27.182c-0.226-0.003-0.448-0.057-0.65-0.158s-0.377-0.248-0.513-0.428c0.106-0.188 0.25-0.352 0.422-0.483s0.368-0.226 0.578-0.279c0.452-0.121 0.919-0.181 1.387-0.179 0.476 0 0.951 0 1.307 0h0.596c0 0-0.044 0.052-0.124 0.132s-0.204 0.187-0.356 0.311c-0.366 0.3-0.769 0.552-1.199 0.749-0.45 0.222-0.945 0.336-1.447 0.335z"></path>
<path fill="#c4a386" style="fill: var(--color1, #c4a386)" d="M24.404 25.36c-0.124 0.17-0.288 0.307-0.478 0.399s-0.399 0.136-0.61 0.128c-0.166-0.4-0.176-0.848-0.028-1.256 0.142-0.374 0.342-0.724 0.592-1.036 0.228-0.311 0.46-0.578 0.628-0.765 0.084-0.1 0.156-0.176 0.204-0.227l0.076-0.080c0 0 0 0.048 0.040 0.132 0.030 0.12 0.054 0.241 0.072 0.363 0.059 0.382 0.059 0.77 0 1.152-0.063 0.432-0.233 0.842-0.496 1.192z"></path>
<path fill="#c4a386" style="fill: var(--color1, #c4a386)" d="M30.105 22.040c0.328-0.104 0.544-0.163 0.544-0.163s-0.020 0.056-0.064 0.147c-0.044 0.092-0.112 0.215-0.196 0.367s-0.188 0.327-0.308 0.51c-0.060 0.092-0.124 0.183-0.192 0.279l-0.052 0.072-0.068 0.088-0.14 0.176c-0.345 0.434-0.805 0.764-1.327 0.953-0.216 0.080-0.449 0.104-0.677 0.071s-0.445-0.122-0.63-0.259c0.107-0.426 0.364-0.8 0.724-1.052 0.084-0.068 0.18-0.132 0.276-0.199l0.304-0.191 0.324-0.187c0.1-0.056 0.204-0.107 0.308-0.155 0.381-0.177 0.774-0.329 1.175-0.454z"></path>
<path fill="#c4a386" style="fill: var(--color1, #c4a386)" d="M26.882 22.861c-0.054 0.202-0.162 0.385-0.312 0.531s-0.336 0.249-0.54 0.298c-0.264-0.334-0.414-0.743-0.428-1.168-0.011-0.354 0.014-0.707 0.072-1.056 0.024-0.177 0.061-0.351 0.112-0.522 0.052-0.175 0.104-0.335 0.156-0.466s0.096-0.243 0.128-0.319l0.044-0.12 0.084 0.12c0.052 0.080 0.116 0.191 0.188 0.331 0.186 0.355 0.335 0.727 0.444 1.112 0.028 0.108 0.056 0.219 0.080 0.331 0.021 0.105 0.036 0.212 0.044 0.319 0.010 0.106 0.010 0.213 0 0.319-0.015 0.099-0.039 0.197-0.072 0.291z"></path>
<path fill="#c4a386" style="fill: var(--color1, #c4a386)" d="M30.609 20.405c-0.078 0.091-0.164 0.175-0.256 0.251-0.087 0.075-0.179 0.143-0.276 0.203-0.181 0.132-0.39 0.221-0.611 0.261s-0.448 0.030-0.664-0.030c-0.038-0.213-0.024-0.431 0.040-0.638 0.030-0.098 0.071-0.191 0.124-0.279 0.052-0.091 0.11-0.179 0.172-0.263 0.287-0.359 0.633-0.666 1.023-0.909 0.344-0.242 0.702-0.464 1.071-0.666l0.504-0.271c0 0 0 0.060-0.032 0.159s-0.068 0.239-0.128 0.399c-0.128 0.42-0.31 0.822-0.54 1.196-0.128 0.206-0.271 0.402-0.428 0.586z"></path>
<path fill="#c4a386" style="fill: var(--color1, #c4a386)" d="M28.106 20.238c-0.090 0.189-0.228 0.351-0.4 0.47-0.384-0.215-0.671-0.569-0.8-0.989-0.032-0.098-0.057-0.198-0.076-0.299l-0.024-0.151c0-0.048 0-0.1-0.024-0.151-0.024-0.204-0.032-0.409-0.024-0.614 0.013-0.347 0.047-0.693 0.1-1.036 0.024-0.136 0.048-0.247 0.064-0.323s0.024-0.12 0.024-0.12l0.1 0.1c0.089 0.088 0.173 0.181 0.252 0.279 0.248 0.303 0.462 0.632 0.64 0.981 0.195 0.393 0.3 0.825 0.308 1.264-0.001 0.104-0.014 0.207-0.040 0.307-0.023 0.098-0.056 0.193-0.1 0.283z"></path>
<path fill="#c4a386" style="fill: var(--color1, #c4a386)" d="M31.416 16.618c-0.056 0.106-0.12 0.207-0.192 0.303-0.072 0.093-0.151 0.181-0.236 0.263-0.153 0.161-0.34 0.285-0.548 0.365s-0.43 0.111-0.652 0.094c-0.079-0.2-0.108-0.416-0.084-0.63 0.012-0.102 0.035-0.202 0.068-0.299 0.026-0.101 0.059-0.199 0.1-0.295 0.096-0.202 0.216-0.392 0.356-0.566l0.216-0.271c0.072-0.092 0.152-0.179 0.228-0.267 0.316-0.343 0.66-0.662 0.904-0.897s0.424-0.391 0.424-0.391c0 0 0 0.239 0 0.598-0.019 0.206-0.048 0.411-0.088 0.614-0.024 0.112-0.048 0.227-0.076 0.343-0.026 0.119-0.059 0.236-0.1 0.351-0.091 0.236-0.197 0.465-0.32 0.686z"></path>
<path fill="#c4a386" style="fill: var(--color1, #c4a386)" d="M28.638 17.384c-0.41-0.137-0.753-0.421-0.964-0.797-0.051-0.087-0.095-0.177-0.132-0.271-0.046-0.092-0.086-0.186-0.12-0.283-0.063-0.186-0.111-0.377-0.144-0.57-0.036-0.187-0.076-0.371-0.096-0.538 0-0.088 0-0.167-0.024-0.243s0-0.147 0-0.215c-0.022-0.145-0.035-0.292-0.040-0.439 0 0 0.176 0.1 0.428 0.279l0.204 0.151c0.072 0.060 0.144 0.12 0.216 0.187 0.156 0.139 0.302 0.29 0.436 0.45 0.068 0.084 0.136 0.171 0.2 0.263l0.088 0.14 0.076 0.148c0.095 0.191 0.165 0.393 0.208 0.602 0.022 0.101 0.033 0.204 0.032 0.307-0.006 0.1-0.022 0.199-0.048 0.295-0.057 0.203-0.168 0.387-0.32 0.534z"></path>
<path fill="#c4a386" style="fill: var(--color1, #c4a386)" d="M30.301 11.636c0.108-0.207 0.224-0.399 0.336-0.594l0.308-0.498c0.18-0.291 0.312-0.478 0.312-0.478s0.068 0.227 0.14 0.578c0.024 0.179 0.052 0.399 0.068 0.618 0 0.112 0 0.231 0 0.351s0 0.243 0 0.367c-0.019 0.247-0.060 0.493-0.12 0.734-0.063 0.231-0.157 0.452-0.28 0.658-0.11 0.192-0.264 0.356-0.448 0.479s-0.395 0.202-0.615 0.23c-0.060-0.091-0.108-0.188-0.144-0.291-0.038-0.096-0.065-0.197-0.080-0.299-0.031-0.205-0.021-0.413 0.028-0.614 0.046-0.216 0.111-0.426 0.196-0.63 0.088-0.211 0.196-0.427 0.3-0.61z"></path>
<path fill="#c4a386" style="fill: var(--color1, #c4a386)" d="M27.714 13.437c-0.141-0.138-0.265-0.294-0.368-0.462-0.112-0.158-0.21-0.326-0.292-0.502-0.044-0.084-0.076-0.167-0.116-0.247l-0.104-0.239c-0.064-0.155-0.112-0.299-0.156-0.423-0.092-0.243-0.136-0.399-0.136-0.399 0.167 0.043 0.331 0.095 0.492 0.155 0.36 0.135 0.7 0.317 1.011 0.542 0.091 0.062 0.178 0.13 0.26 0.203 0.080 0.073 0.156 0.15 0.228 0.231 0.143 0.16 0.263 0.34 0.356 0.534 0.082 0.183 0.124 0.381 0.124 0.582 0.003 0.1-0.011 0.199-0.040 0.295-0.033 0.102-0.079 0.2-0.136 0.291-0.429-0.050-0.827-0.249-1.123-0.562z"></path>
<path fill="#c4a386" style="fill: var(--color1, #c4a386)" d="M29.118 10.352c-0.062-0.081-0.115-0.169-0.156-0.263-0.039-0.092-0.069-0.188-0.088-0.287 0-0.1-0.028-0.203-0.040-0.307-0.013-0.217-0.001-0.435 0.036-0.65 0.030-0.23 0.075-0.457 0.132-0.682 0.116-0.454 0.24-0.881 0.356-1.196s0.188-0.554 0.188-0.554 0.032 0.052 0.080 0.14c0.048 0.088 0.112 0.223 0.188 0.399 0.181 0.401 0.315 0.821 0.4 1.252 0.040 0.239 0.062 0.48 0.068 0.722-0.001 0.12-0.011 0.24-0.028 0.359-0.019 0.114-0.044 0.227-0.076 0.339-0.058 0.212-0.162 0.41-0.304 0.578-0.145 0.176-0.332 0.313-0.544 0.399-0.082-0.072-0.153-0.156-0.212-0.247z"></path>
<path fill="#c4a386" style="fill: var(--color1, #c4a386)" d="M25.327 8.622c-0.044-0.064-0.064-0.1-0.064-0.1h0.14c0.096 0 0.22 0 0.372 0.032s0.332 0.048 0.524 0.092c0.096 0.020 0.196 0.048 0.296 0.076s0.196 0.068 0.296 0.108c0.205 0.077 0.4 0.176 0.584 0.295 0.175 0.112 0.335 0.246 0.476 0.399 0.065 0.077 0.12 0.161 0.164 0.251 0.043 0.088 0.078 0.18 0.104 0.275 0.027 0.096 0.041 0.195 0.040 0.295-0.009 0.107-0.029 0.212-0.060 0.315-0.218 0.042-0.442 0.042-0.66 0-0.199-0.045-0.39-0.119-0.568-0.219-0.084-0.052-0.168-0.104-0.248-0.163l-0.112-0.092-0.116-0.096c-0.144-0.121-0.278-0.255-0.4-0.399-0.12-0.126-0.232-0.259-0.336-0.399l-0.072-0.104-0.068-0.092c-0.048-0.064-0.088-0.124-0.124-0.175s-0.132-0.231-0.168-0.299z"></path>
<path fill="#c4a386" style="fill: var(--color1, #c4a386)" d="M27.814 7.418c-0.189-0.092-0.352-0.229-0.476-0.399-0.124-0.162-0.215-0.346-0.268-0.542-0.218-0.837-0.16-1.727-0.084-2.579 0.036-0.331 0.072-0.554 0.072-0.554 0.162 0.125 0.284 0.271 0.404 0.438 0.121 0.158 0.233 0.323 0.336 0.494 0.119 0.199 0.226 0.406 0.32 0.618 0.095 0.222 0.171 0.451 0.228 0.686 0.047 0.228 0.066 0.461 0.056 0.694-0.006 0.222-0.061 0.441-0.163 0.639s-0.247 0.371-0.425 0.505z"></path>
<path fill="#c4a386" style="fill: var(--color1, #c4a386)" d="M24.456 7.179c-0.156-0.116-0.3-0.227-0.428-0.339s-0.248-0.219-0.34-0.311-0.176-0.171-0.228-0.227l-0.084-0.088c0.169-0.034 0.34-0.059 0.512-0.076s0.344-0.023 0.516-0.020c0.209-0.001 0.417 0.015 0.624 0.048 0.431 0.050 0.843 0.205 1.199 0.45 0.161 0.121 0.297 0.273 0.4 0.446 0.090 0.182 0.133 0.383 0.124 0.586-0.395 0.17-0.837 0.193-1.247 0.064-0.192-0.056-0.377-0.133-0.552-0.231-0.173-0.088-0.338-0.19-0.496-0.303z"></path>
<path fill="#c4a386" style="fill: var(--color1, #c4a386)" d="M25.733 5.363c-0.235 0-0.602 0.022-0.901-0.185-0.081-0.059-0.158-0.123-0.232-0.191-0.077-0.068-0.149-0.141-0.216-0.219-0.144-0.155-0.278-0.321-0.4-0.494-0.232-0.343-0.432-0.698-0.576-0.965-0.072-0.132-0.122-0.247-0.162-0.327l-0.027-0.068-0.015-0.048 0.186 0.013c0.124 0.016 0.196 0.027 0.317 0.059 0.382 0.097 0.75 0.241 1.095 0.431 0.399 0.206 0.744 0.502 1.007 0.865 0.122 0.172 0.204 0.37 0.24 0.578 0.040 0.174 0.039 0.35 0 0.53z"></path>
<path fill="#c4a386" style="fill: var(--color1, #c4a386)" d="M14.554 10.587c-2.060 0.654-3.492 2.739-3.343 4.868 0.131 1.886 1.314 3.511 3.035 4.173 0.868 0.333 2.205 0.379 3.108 0.107 3.556-1.074 4.633-5.564 1.935-8.072-0.969-0.901-1.939-1.271-3.307-1.263-0.541 0.003-1.066 0.072-1.428 0.187zM16.597 11.062l0.578 0.569-3.597 3.579 2.373 2.352 2.45-2.42-0.629-0.625-1.201 1.181-1.144-1.138 2.344-2.33 2.944 2.926-4.741 4.712-4.721-4.693 2.326-2.342c1.279-1.288 2.352-2.342 2.383-2.342s0.317 0.256 0.634 0.568z"></path>
</symbol>
<symbol id="if-design-award" viewBox="0 0 32 32">
<path fill="#c4a386" style="fill: var(--color1, #c4a386)" d="M11.442 28.155c-0.184-0.144-0.389-0.26-0.608-0.343-0.205-0.072-0.419-0.112-0.636-0.12-0.47-0.005-0.938 0.054-1.391 0.176-0.464 0.116-0.908 0.251-1.235 0.363s-0.544 0.195-0.544 0.195 0.212 0.12 0.548 0.263c0.42 0.182 0.86 0.316 1.311 0.399 0.51 0.1 1.035 0.088 1.539-0.036 0.232-0.050 0.448-0.158 0.626-0.315s0.312-0.357 0.39-0.581z"></path>
<path fill="#c4a386" style="fill: var(--color1, #c4a386)" d="M10.027 26.106c0.173 0.414 0.448 0.778 0.8 1.056 0.167 0.129 0.361 0.219 0.568 0.263 0.213 0.043 0.434 0.023 0.636-0.060 0.014-0.422-0.1-0.839-0.328-1.196-0.217-0.331-0.487-0.625-0.8-0.869-0.271-0.218-0.556-0.419-0.852-0.602-0.236-0.148-0.4-0.231-0.4-0.231s0 0.052 0 0.144c0 0.092 0.024 0.215 0.052 0.375 0.062 0.385 0.171 0.761 0.324 1.12z"></path>
<path fill="#c4a386" style="fill: var(--color1, #c4a386)" d="M6.692 27.182c0.226-0.003 0.448-0.057 0.65-0.158s0.377-0.248 0.513-0.428c-0.106-0.188-0.25-0.352-0.422-0.483s-0.368-0.226-0.578-0.279c-0.452-0.121-0.919-0.181-1.387-0.179-0.476 0-0.952 0-1.307 0h-0.596c0 0 0.044 0.052 0.124 0.132s0.204 0.187 0.356 0.311c0.366 0.3 0.769 0.552 1.199 0.749 0.45 0.222 0.945 0.336 1.447 0.335z"></path>
<path fill="#c4a386" style="fill: var(--color1, #c4a386)" d="M7.596 25.36c0.124 0.17 0.288 0.307 0.478 0.399s0.399 0.136 0.61 0.128c0.166-0.4 0.176-0.848 0.028-1.256-0.142-0.374-0.342-0.724-0.592-1.036-0.228-0.311-0.46-0.578-0.628-0.765-0.084-0.1-0.156-0.176-0.204-0.227l-0.076-0.080c0 0 0 0.048-0.040 0.132-0.030 0.12-0.054 0.241-0.072 0.363-0.059 0.382-0.059 0.77 0 1.152 0.063 0.432 0.233 0.842 0.496 1.192z"></path>
<path fill="#c4a386" style="fill: var(--color1, #c4a386)" d="M1.895 22.040c-0.328-0.104-0.544-0.163-0.544-0.163s0.020 0.056 0.064 0.147c0.044 0.092 0.112 0.215 0.196 0.367s0.188 0.327 0.308 0.51c0.060 0.092 0.124 0.183 0.192 0.279l0.052 0.072 0.068 0.088 0.14 0.176c0.345 0.434 0.805 0.764 1.327 0.953 0.216 0.080 0.449 0.104 0.677 0.071s0.445-0.122 0.63-0.259c-0.107-0.426-0.364-0.8-0.724-1.052-0.084-0.068-0.18-0.132-0.276-0.199l-0.304-0.191-0.324-0.187c-0.1-0.056-0.204-0.107-0.308-0.155-0.381-0.177-0.774-0.329-1.175-0.454z"></path>
<path fill="#c4a386" style="fill: var(--color1, #c4a386)" d="M5.117 22.861c0.054 0.202 0.162 0.385 0.312 0.531s0.336 0.249 0.54 0.298c0.264-0.334 0.414-0.743 0.428-1.168 0.011-0.354-0.014-0.707-0.072-1.056-0.024-0.177-0.061-0.351-0.112-0.522-0.052-0.175-0.104-0.335-0.156-0.466s-0.096-0.243-0.128-0.319l-0.044-0.12-0.084 0.12c-0.052 0.080-0.116 0.191-0.188 0.331-0.186 0.355-0.334 0.727-0.444 1.112-0.028 0.108-0.056 0.219-0.080 0.331-0.021 0.105-0.035 0.212-0.044 0.319-0.010 0.106-0.010 0.213 0 0.319 0.015 0.099 0.039 0.197 0.072 0.291z"></path>
<path fill="#c4a386" style="fill: var(--color1, #c4a386)" d="M1.391 20.405c0.078 0.091 0.164 0.175 0.256 0.251 0.087 0.075 0.179 0.143 0.276 0.203 0.181 0.132 0.39 0.221 0.611 0.261s0.448 0.030 0.664-0.030c0.038-0.213 0.024-0.431-0.040-0.638-0.030-0.098-0.071-0.191-0.124-0.279-0.052-0.091-0.11-0.179-0.172-0.263-0.287-0.359-0.633-0.666-1.023-0.909-0.344-0.242-0.702-0.464-1.071-0.666l-0.504-0.271c0 0 0 0.060 0.032 0.159s0.068 0.239 0.128 0.399c0.128 0.42 0.31 0.822 0.54 1.196 0.128 0.206 0.271 0.402 0.428 0.586z"></path>
<path fill="#c4a386" style="fill: var(--color1, #c4a386)" d="M3.894 20.238c0.090 0.189 0.228 0.351 0.4 0.47 0.384-0.215 0.671-0.569 0.8-0.989 0.032-0.098 0.057-0.198 0.076-0.299l0.024-0.151c0-0.048 0-0.1 0.024-0.151 0.024-0.204 0.032-0.409 0.024-0.614-0.013-0.347-0.047-0.693-0.1-1.036-0.024-0.136-0.048-0.247-0.064-0.323s-0.024-0.12-0.024-0.12l-0.1 0.1c-0.089 0.088-0.173 0.181-0.252 0.279-0.248 0.303-0.462 0.632-0.64 0.981-0.195 0.393-0.3 0.825-0.308 1.264 0.001 0.104 0.014 0.207 0.040 0.307 0.023 0.098 0.056 0.193 0.1 0.283z"></path>
<path fill="#c4a386" style="fill: var(--color1, #c4a386)" d="M0.584 16.618c0.056 0.106 0.12 0.207 0.192 0.303 0.072 0.093 0.151 0.181 0.236 0.263 0.153 0.161 0.34 0.285 0.548 0.365s0.43 0.111 0.652 0.094c0.079-0.2 0.108-0.416 0.084-0.63-0.012-0.102-0.035-0.202-0.068-0.299-0.026-0.101-0.059-0.199-0.1-0.295-0.096-0.202-0.216-0.392-0.356-0.566l-0.216-0.271c-0.072-0.092-0.152-0.179-0.228-0.267-0.316-0.343-0.66-0.662-0.904-0.897s-0.424-0.391-0.424-0.391c0 0 0 0.239 0 0.598 0.019 0.206 0.048 0.411 0.088 0.614 0.024 0.112 0.048 0.227 0.076 0.343 0.026 0.119 0.059 0.236 0.1 0.351 0.091 0.236 0.198 0.465 0.32 0.686z"></path>
<path fill="#c4a386" style="fill: var(--color1, #c4a386)" d="M3.362 17.384c0.409-0.137 0.753-0.421 0.964-0.797 0.051-0.087 0.095-0.177 0.132-0.271 0.046-0.092 0.086-0.186 0.12-0.283 0.063-0.186 0.111-0.377 0.144-0.57 0.036-0.187 0.076-0.371 0.096-0.538 0-0.088 0-0.167 0.024-0.243s0-0.147 0-0.215c0.022-0.145 0.035-0.292 0.040-0.439 0 0-0.176 0.1-0.428 0.279l-0.204 0.151c-0.072 0.060-0.144 0.12-0.216 0.187-0.156 0.139-0.302 0.29-0.436 0.45-0.068 0.084-0.136 0.171-0.2 0.263l-0.088 0.14-0.076 0.148c-0.095 0.191-0.165 0.393-0.208 0.602-0.022 0.101-0.033 0.204-0.032 0.307 0.006 0.1 0.022 0.199 0.048 0.295 0.057 0.203 0.168 0.387 0.32 0.534z"></path>
<path fill="#c4a386" style="fill: var(--color1, #c4a386)" d="M1.699 11.636c-0.108-0.207-0.224-0.399-0.336-0.594l-0.308-0.498c-0.18-0.291-0.312-0.478-0.312-0.478s-0.068 0.227-0.14 0.578c-0.024 0.179-0.052 0.399-0.068 0.618 0 0.112 0 0.231 0 0.351s0 0.243 0 0.367c0.019 0.247 0.060 0.493 0.12 0.734 0.063 0.231 0.157 0.452 0.28 0.658 0.11 0.192 0.264 0.356 0.448 0.479s0.395 0.202 0.615 0.23c0.060-0.091 0.108-0.188 0.144-0.291 0.038-0.096 0.065-0.197 0.080-0.299 0.031-0.205 0.021-0.413-0.028-0.614-0.046-0.216-0.111-0.426-0.196-0.63-0.088-0.211-0.196-0.427-0.3-0.61z"></path>
<path fill="#c4a386" style="fill: var(--color1, #c4a386)" d="M4.286 13.437c0.141-0.138 0.265-0.294 0.368-0.462 0.112-0.158 0.21-0.326 0.292-0.502 0.044-0.084 0.076-0.167 0.116-0.247l0.104-0.239c0.064-0.155 0.112-0.299 0.156-0.423 0.092-0.243 0.136-0.399 0.136-0.399-0.167 0.043-0.331 0.095-0.492 0.155-0.36 0.135-0.7 0.317-1.011 0.542-0.091 0.062-0.178 0.13-0.26 0.203-0.080 0.073-0.156 0.15-0.228 0.231-0.143 0.16-0.263 0.34-0.356 0.534-0.082 0.183-0.124 0.381-0.124 0.582-0.003 0.1 0.011 0.199 0.040 0.295 0.033 0.102 0.079 0.2 0.136 0.291 0.429-0.050 0.827-0.249 1.123-0.562z"></path>
<path fill="#c4a386" style="fill: var(--color1, #c4a386)" d="M2.882 10.352c0.062-0.081 0.115-0.169 0.156-0.263 0.039-0.092 0.069-0.188 0.088-0.287 0-0.1 0.028-0.203 0.040-0.307 0.013-0.217 0.001-0.435-0.036-0.65-0.030-0.23-0.075-0.457-0.132-0.682-0.116-0.454-0.24-0.881-0.356-1.196s-0.188-0.554-0.188-0.554-0.032 0.052-0.080 0.14c-0.048 0.088-0.112 0.223-0.188 0.399-0.181 0.401-0.315 0.821-0.4 1.252-0.040 0.239-0.062 0.48-0.068 0.722 0.001 0.12 0.011 0.24 0.028 0.359 0.019 0.114 0.044 0.227 0.076 0.339 0.058 0.212 0.162 0.41 0.304 0.578 0.145 0.176 0.332 0.313 0.544 0.399 0.082-0.072 0.153-0.156 0.212-0.247z"></path>
<path fill="#c4a386" style="fill: var(--color1, #c4a386)" d="M6.673 8.622c0.044-0.064 0.064-0.1 0.064-0.1h-0.14c-0.096 0-0.22 0-0.372 0.032s-0.332 0.048-0.524 0.092c-0.096 0.020-0.196 0.048-0.296 0.076s-0.196 0.068-0.296 0.108c-0.205 0.077-0.4 0.176-0.584 0.295-0.175 0.112-0.335 0.246-0.476 0.399-0.065 0.077-0.12 0.161-0.164 0.251-0.043 0.088-0.078 0.18-0.104 0.275-0.027 0.096-0.041 0.195-0.040 0.295 0.009 0.107 0.029 0.212 0.060 0.315 0.218 0.042 0.442 0.042 0.66 0 0.199-0.045 0.39-0.119 0.568-0.219 0.084-0.052 0.168-0.104 0.248-0.163l0.112-0.092 0.116-0.096c0.144-0.121 0.278-0.255 0.4-0.399 0.12-0.126 0.232-0.259 0.336-0.399l0.072-0.104 0.068-0.092c0.048-0.064 0.088-0.124 0.124-0.175s0.132-0.231 0.168-0.299z"></path>
<path fill="#c4a386" style="fill: var(--color1, #c4a386)" d="M4.186 7.418c0.189-0.092 0.352-0.229 0.476-0.399 0.124-0.162 0.215-0.346 0.268-0.542 0.218-0.837 0.16-1.727 0.084-2.579-0.036-0.331-0.072-0.554-0.072-0.554-0.162 0.125-0.284 0.271-0.404 0.438-0.121 0.158-0.233 0.323-0.336 0.494-0.119 0.199-0.226 0.406-0.32 0.618-0.095 0.222-0.171 0.451-0.228 0.686-0.047 0.228-0.066 0.461-0.056 0.694 0.006 0.222 0.061 0.441 0.163 0.639s0.247 0.371 0.425 0.505z"></path>
<path fill="#c4a386" style="fill: var(--color1, #c4a386)" d="M7.544 7.179c0.156-0.116 0.3-0.227 0.428-0.339s0.248-0.219 0.34-0.311c0.092-0.092 0.176-0.171 0.228-0.227l0.084-0.088c-0.169-0.034-0.34-0.059-0.512-0.076s-0.344-0.023-0.516-0.020c-0.209-0.001-0.417 0.015-0.624 0.048-0.431 0.050-0.843 0.205-1.199 0.45-0.161 0.121-0.297 0.273-0.4 0.446-0.090 0.182-0.133 0.383-0.124 0.586 0.395 0.17 0.837 0.193 1.247 0.064 0.192-0.056 0.377-0.133 0.552-0.231 0.173-0.088 0.338-0.19 0.496-0.303z"></path>
<path fill="#c4a386" style="fill: var(--color1, #c4a386)" d="M6.267 5.363c0.235 0 0.602 0.022 0.901-0.185 0.081-0.059 0.158-0.123 0.232-0.191 0.077-0.068 0.149-0.141 0.216-0.219 0.144-0.155 0.278-0.321 0.4-0.494 0.232-0.343 0.432-0.698 0.576-0.965 0.072-0.132 0.122-0.247 0.162-0.327l0.027-0.068 0.015-0.048-0.186 0.013c-0.124 0.016-0.196 0.027-0.317 0.059-0.382 0.097-0.75 0.241-1.095 0.431-0.399 0.206-0.744 0.502-1.007 0.865-0.122 0.172-0.204 0.37-0.24 0.578-0.040 0.174-0.039 0.35 0 0.53z"></path>
<path fill="#c4a386" style="fill: var(--color1, #c4a386)" d="M20.558 28.155c0.184-0.144 0.389-0.26 0.608-0.343 0.205-0.072 0.419-0.112 0.636-0.12 0.47-0.005 0.938 0.054 1.391 0.176 0.464 0.116 0.908 0.251 1.235 0.363s0.544 0.195 0.544 0.195-0.212 0.12-0.548 0.263c-0.421 0.182-0.86 0.316-1.311 0.399-0.51 0.1-1.035 0.088-1.539-0.036-0.232-0.050-0.448-0.158-0.626-0.315s-0.312-0.357-0.39-0.581z"></path>
<path fill="#c4a386" style="fill: var(--color1, #c4a386)" d="M21.973 26.106c-0.173 0.414-0.448 0.778-0.8 1.056-0.167 0.129-0.361 0.219-0.568 0.263-0.213 0.043-0.434 0.023-0.636-0.060-0.014-0.422 0.1-0.839 0.328-1.196 0.217-0.331 0.487-0.625 0.8-0.869 0.271-0.218 0.556-0.419 0.852-0.602 0.236-0.148 0.4-0.231 0.4-0.231s0 0.052 0 0.144c0 0.092-0.024 0.215-0.052 0.375-0.062 0.385-0.17 0.761-0.324 1.12z"></path>
<path fill="#c4a386" style="fill: var(--color1, #c4a386)" d="M25.308 27.182c-0.226-0.003-0.448-0.057-0.65-0.158s-0.377-0.248-0.513-0.428c0.106-0.188 0.25-0.352 0.422-0.483s0.368-0.226 0.578-0.279c0.452-0.121 0.919-0.181 1.387-0.179 0.476 0 0.951 0 1.307 0h0.596c0 0-0.044 0.052-0.124 0.132s-0.204 0.187-0.356 0.311c-0.366 0.3-0.769 0.552-1.199 0.749-0.45 0.222-0.945 0.336-1.447 0.335z"></path>
<path fill="#c4a386" style="fill: var(--color1, #c4a386)" d="M24.404 25.36c-0.124 0.17-0.288 0.307-0.478 0.399s-0.399 0.136-0.61 0.128c-0.166-0.4-0.176-0.848-0.028-1.256 0.142-0.374 0.342-0.724 0.592-1.036 0.228-0.311 0.46-0.578 0.628-0.765 0.084-0.1 0.156-0.176 0.204-0.227l0.076-0.080c0 0 0 0.048 0.040 0.132 0.030 0.12 0.054 0.241 0.072 0.363 0.059 0.382 0.059 0.77 0 1.152-0.063 0.432-0.233 0.842-0.496 1.192z"></path>
<path fill="#c4a386" style="fill: var(--color1, #c4a386)" d="M30.105 22.040c0.328-0.104 0.544-0.163 0.544-0.163s-0.020 0.056-0.064 0.147c-0.044 0.092-0.112 0.215-0.196 0.367s-0.188 0.327-0.308 0.51c-0.060 0.092-0.124 0.183-0.192 0.279l-0.052 0.072-0.068 0.088-0.14 0.176c-0.345 0.434-0.805 0.764-1.327 0.953-0.216 0.080-0.449 0.104-0.677 0.071s-0.445-0.122-0.63-0.259c0.107-0.426 0.364-0.8 0.724-1.052 0.084-0.068 0.18-0.132 0.276-0.199l0.304-0.191 0.324-0.187c0.1-0.056 0.204-0.107 0.308-0.155 0.381-0.177 0.774-0.329 1.175-0.454z"></path>
<path fill="#c4a386" style="fill: var(--color1, #c4a386)" d="M26.882 22.861c-0.054 0.202-0.162 0.385-0.312 0.531s-0.336 0.249-0.54 0.298c-0.264-0.334-0.414-0.743-0.428-1.168-0.011-0.354 0.014-0.707 0.072-1.056 0.024-0.177 0.061-0.351 0.112-0.522 0.052-0.175 0.104-0.335 0.156-0.466s0.096-0.243 0.128-0.319l0.044-0.12 0.084 0.12c0.052 0.080 0.116 0.191 0.188 0.331 0.186 0.355 0.335 0.727 0.444 1.112 0.028 0.108 0.056 0.219 0.080 0.331 0.021 0.105 0.036 0.212 0.044 0.319 0.010 0.106 0.010 0.213 0 0.319-0.015 0.099-0.039 0.197-0.072 0.291z"></path>
<path fill="#c4a386" style="fill: var(--color1, #c4a386)" d="M30.609 20.405c-0.078 0.091-0.164 0.175-0.256 0.251-0.087 0.075-0.179 0.143-0.276 0.203-0.181 0.132-0.39 0.221-0.611 0.261s-0.448 0.030-0.664-0.030c-0.038-0.213-0.024-0.431 0.040-0.638 0.030-0.098 0.071-0.191 0.124-0.279 0.052-0.091 0.11-0.179 0.172-0.263 0.287-0.359 0.633-0.666 1.023-0.909 0.344-0.242 0.702-0.464 1.071-0.666l0.504-0.271c0 0 0 0.060-0.032 0.159s-0.068 0.239-0.128 0.399c-0.128 0.42-0.31 0.822-0.54 1.196-0.128 0.206-0.271 0.402-0.428 0.586z"></path>
<path fill="#c4a386" style="fill: var(--color1, #c4a386)" d="M28.106 20.238c-0.090 0.189-0.228 0.351-0.4 0.47-0.384-0.215-0.671-0.569-0.8-0.989-0.032-0.098-0.057-0.198-0.076-0.299l-0.024-0.151c0-0.048 0-0.1-0.024-0.151-0.024-0.204-0.032-0.409-0.024-0.614 0.013-0.347 0.047-0.693 0.1-1.036 0.024-0.136 0.048-0.247 0.064-0.323s0.024-0.12 0.024-0.12l0.1 0.1c0.089 0.088 0.173 0.181 0.252 0.279 0.248 0.303 0.462 0.632 0.64 0.981 0.195 0.393 0.3 0.825 0.308 1.264-0.001 0.104-0.014 0.207-0.040 0.307-0.023 0.098-0.056 0.193-0.1 0.283z"></path>
<path fill="#c4a386" style="fill: var(--color1, #c4a386)" d="M31.416 16.618c-0.056 0.106-0.12 0.207-0.192 0.303-0.072 0.093-0.151 0.181-0.236 0.263-0.153 0.161-0.34 0.285-0.548 0.365s-0.43 0.111-0.652 0.094c-0.079-0.2-0.108-0.416-0.084-0.63 0.012-0.102 0.035-0.202 0.068-0.299 0.026-0.101 0.059-0.199 0.1-0.295 0.096-0.202 0.216-0.392 0.356-0.566l0.216-0.271c0.072-0.092 0.152-0.179 0.228-0.267 0.316-0.343 0.66-0.662 0.904-0.897s0.424-0.391 0.424-0.391c0 0 0 0.239 0 0.598-0.019 0.206-0.048 0.411-0.088 0.614-0.024 0.112-0.048 0.227-0.076 0.343-0.026 0.119-0.059 0.236-0.1 0.351-0.091 0.236-0.197 0.465-0.32 0.686z"></path>
<path fill="#c4a386" style="fill: var(--color1, #c4a386)" d="M28.638 17.384c-0.41-0.137-0.753-0.421-0.964-0.797-0.051-0.087-0.095-0.177-0.132-0.271-0.046-0.092-0.086-0.186-0.12-0.283-0.063-0.186-0.111-0.377-0.144-0.57-0.036-0.187-0.076-0.371-0.096-0.538 0-0.088 0-0.167-0.024-0.243s0-0.147 0-0.215c-0.022-0.145-0.035-0.292-0.040-0.439 0 0 0.176 0.1 0.428 0.279l0.204 0.151c0.072 0.060 0.144 0.12 0.216 0.187 0.156 0.139 0.302 0.29 0.436 0.45 0.068 0.084 0.136 0.171 0.2 0.263l0.088 0.14 0.076 0.148c0.095 0.191 0.165 0.393 0.208 0.602 0.022 0.101 0.033 0.204 0.032 0.307-0.006 0.1-0.022 0.199-0.048 0.295-0.057 0.203-0.168 0.387-0.32 0.534z"></path>
<path fill="#c4a386" style="fill: var(--color1, #c4a386)" d="M30.301 11.636c0.108-0.207 0.224-0.399 0.336-0.594l0.308-0.498c0.18-0.291 0.312-0.478 0.312-0.478s0.068 0.227 0.14 0.578c0.024 0.179 0.052 0.399 0.068 0.618 0 0.112 0 0.231 0 0.351s0 0.243 0 0.367c-0.019 0.247-0.060 0.493-0.12 0.734-0.063 0.231-0.157 0.452-0.28 0.658-0.11 0.192-0.264 0.356-0.448 0.479s-0.395 0.202-0.615 0.23c-0.060-0.091-0.108-0.188-0.144-0.291-0.038-0.096-0.065-0.197-0.080-0.299-0.031-0.205-0.021-0.413 0.028-0.614 0.046-0.216 0.111-0.426 0.196-0.63 0.088-0.211 0.196-0.427 0.3-0.61z"></path>
<path fill="#c4a386" style="fill: var(--color1, #c4a386)" d="M27.714 13.437c-0.141-0.138-0.265-0.294-0.368-0.462-0.112-0.158-0.21-0.326-0.292-0.502-0.044-0.084-0.076-0.167-0.116-0.247l-0.104-0.239c-0.064-0.155-0.112-0.299-0.156-0.423-0.092-0.243-0.136-0.399-0.136-0.399 0.167 0.043 0.331 0.095 0.492 0.155 0.36 0.135 0.7 0.317 1.011 0.542 0.091 0.062 0.178 0.13 0.26 0.203 0.080 0.073 0.156 0.15 0.228 0.231 0.143 0.16 0.263 0.34 0.356 0.534 0.082 0.183 0.124 0.381 0.124 0.582 0.003 0.1-0.011 0.199-0.040 0.295-0.033 0.102-0.079 0.2-0.136 0.291-0.429-0.050-0.827-0.249-1.123-0.562z"></path>
<path fill="#c4a386" style="fill: var(--color1, #c4a386)" d="M29.118 10.352c-0.062-0.081-0.115-0.169-0.156-0.263-0.039-0.092-0.069-0.188-0.088-0.287 0-0.1-0.028-0.203-0.040-0.307-0.013-0.217-0.001-0.435 0.036-0.65 0.030-0.23 0.075-0.457 0.132-0.682 0.116-0.454 0.24-0.881 0.356-1.196s0.188-0.554 0.188-0.554 0.032 0.052 0.080 0.14c0.048 0.088 0.112 0.223 0.188 0.399 0.181 0.401 0.315 0.821 0.4 1.252 0.040 0.239 0.062 0.48 0.068 0.722-0.001 0.12-0.011 0.24-0.028 0.359-0.019 0.114-0.044 0.227-0.076 0.339-0.058 0.212-0.162 0.41-0.304 0.578-0.145 0.176-0.332 0.313-0.544 0.399-0.082-0.072-0.153-0.156-0.212-0.247z"></path>
<path fill="#c4a386" style="fill: var(--color1, #c4a386)" d="M25.327 8.622c-0.044-0.064-0.064-0.1-0.064-0.1h0.14c0.096 0 0.22 0 0.372 0.032s0.332 0.048 0.524 0.092c0.096 0.020 0.196 0.048 0.296 0.076s0.196 0.068 0.296 0.108c0.205 0.077 0.4 0.176 0.584 0.295 0.175 0.112 0.335 0.246 0.476 0.399 0.065 0.077 0.12 0.161 0.164 0.251 0.043 0.088 0.078 0.18 0.104 0.275 0.027 0.096 0.041 0.195 0.040 0.295-0.009 0.107-0.029 0.212-0.060 0.315-0.218 0.042-0.442 0.042-0.66 0-0.199-0.045-0.39-0.119-0.568-0.219-0.084-0.052-0.168-0.104-0.248-0.163l-0.112-0.092-0.116-0.096c-0.144-0.121-0.278-0.255-0.4-0.399-0.12-0.126-0.232-0.259-0.336-0.399l-0.072-0.104-0.068-0.092c-0.048-0.064-0.088-0.124-0.124-0.175s-0.132-0.231-0.168-0.299z"></path>
<path fill="#c4a386" style="fill: var(--color1, #c4a386)" d="M27.814 7.418c-0.189-0.092-0.352-0.229-0.476-0.399-0.124-0.162-0.215-0.346-0.268-0.542-0.218-0.837-0.16-1.727-0.084-2.579 0.036-0.331 0.072-0.554 0.072-0.554 0.162 0.125 0.284 0.271 0.404 0.438 0.121 0.158 0.233 0.323 0.336 0.494 0.119 0.199 0.226 0.406 0.32 0.618 0.095 0.222 0.171 0.451 0.228 0.686 0.047 0.228 0.066 0.461 0.056 0.694-0.006 0.222-0.061 0.441-0.163 0.639s-0.247 0.371-0.425 0.505z"></path>
<path fill="#c4a386" style="fill: var(--color1, #c4a386)" d="M24.456 7.179c-0.156-0.116-0.3-0.227-0.428-0.339s-0.248-0.219-0.34-0.311-0.176-0.171-0.228-0.227l-0.084-0.088c0.169-0.034 0.34-0.059 0.512-0.076s0.344-0.023 0.516-0.020c0.209-0.001 0.417 0.015 0.624 0.048 0.431 0.050 0.843 0.205 1.199 0.45 0.161 0.121 0.297 0.273 0.4 0.446 0.090 0.182 0.133 0.383 0.124 0.586-0.395 0.17-0.837 0.193-1.247 0.064-0.192-0.056-0.377-0.133-0.552-0.231-0.173-0.088-0.338-0.19-0.496-0.303z"></path>
<path fill="#c4a386" style="fill: var(--color1, #c4a386)" d="M25.733 5.363c-0.235 0-0.602 0.022-0.901-0.185-0.081-0.059-0.158-0.123-0.232-0.191-0.077-0.068-0.149-0.141-0.216-0.219-0.144-0.155-0.278-0.321-0.4-0.494-0.232-0.343-0.432-0.698-0.576-0.965-0.072-0.132-0.122-0.247-0.162-0.327l-0.027-0.068-0.015-0.048 0.186 0.013c0.124 0.016 0.196 0.027 0.317 0.059 0.382 0.097 0.75 0.241 1.095 0.431 0.399 0.206 0.744 0.502 1.007 0.865 0.122 0.172 0.204 0.37 0.24 0.578 0.040 0.174 0.039 0.35 0 0.53z"></path>
<path fill="#c4a386" style="fill: var(--color1, #c4a386)" d="M20.8 20v-9.6h-9.6v9.6h9.6zM18.77 15.992h-1.484v-1.484h1.484v1.484zM16.792 17.971h-1.484v-5.441h1.484v5.441zM18.77 14.012h-1.484v-1.484h1.484v1.484zM13.476 12.675c0.158-0.158 0.372-0.246 0.595-0.246s0.437 0.089 0.595 0.246 0.246 0.372 0.246 0.595c0 0.223-0.089 0.437-0.246 0.595s-0.372 0.246-0.595 0.246c-0.223 0-0.437-0.089-0.595-0.246s-0.246-0.372-0.246-0.595c0-0.223 0.089-0.437 0.246-0.595zM14.816 17.971h-1.484v-3.464h1.484v3.464z"></path>
</symbol>
<symbol id="instagram" viewBox="0 0 32 32">
<path fill="#996830" style="fill: var(--color2, #996830)" d="M15.967 2.882c4.265 0 4.765 0.019 6.451 0.095 1.559 0.070 2.402 0.329 2.966 0.551 0.748 0.292 1.28 0.634 1.838 1.191s0.906 1.090 1.191 1.838c0.215 0.564 0.482 1.407 0.551 2.966 0.076 1.686 0.095 2.186 0.095 6.451s-0.019 4.765-0.095 6.451c-0.070 1.559-0.329 2.402-0.551 2.966-0.292 0.748-0.634 1.28-1.191 1.838s-1.090 0.906-1.838 1.191c-0.564 0.216-1.407 0.482-2.966 0.551-1.685 0.076-2.186 0.095-6.451 0.095s-4.765-0.019-6.451-0.095c-1.559-0.070-2.402-0.329-2.966-0.551-0.748-0.291-1.28-0.634-1.838-1.191s-0.906-1.090-1.191-1.838c-0.215-0.564-0.482-1.407-0.551-2.966-0.076-1.686-0.095-2.186-0.095-6.451s0.019-4.765 0.095-6.451c0.070-1.559 0.33-2.402 0.551-2.966 0.292-0.748 0.634-1.28 1.191-1.838s1.090-0.906 1.838-1.191c0.564-0.215 1.407-0.482 2.966-0.551 1.686-0.082 2.186-0.095 6.451-0.095zM15.967 0.005c-4.334 0-4.879 0.019-6.584 0.095-1.698 0.076-2.858 0.348-3.872 0.741-1.052 0.406-1.939 0.957-2.826 1.844s-1.432 1.781-1.844 2.826c-0.393 1.014-0.665 2.173-0.741 3.878-0.076 1.698-0.095 2.243-0.095 6.577s0.019 4.879 0.095 6.584c0.076 1.698 0.348 2.858 0.741 3.878 0.406 1.052 0.957 1.939 1.844 2.826s1.781 1.432 2.826 1.844c1.014 0.393 2.173 0.665 3.878 0.741s2.243 0.095 6.584 0.095 4.879-0.019 6.584-0.095c1.698-0.076 2.858-0.349 3.878-0.741 1.052-0.406 1.939-0.957 2.826-1.844s1.432-1.781 1.844-2.826c0.393-1.014 0.665-2.173 0.741-3.878s0.095-2.243 0.095-6.584c0-4.341-0.019-4.879-0.095-6.584-0.076-1.698-0.348-2.858-0.741-3.878-0.406-1.052-0.957-1.939-1.844-2.826s-1.781-1.432-2.826-1.844c-1.014-0.393-2.173-0.665-3.878-0.741-1.711-0.070-2.256-0.089-6.59-0.089z"></path>
<path fill="#996830" style="fill: var(--color2, #996830)" d="M15.967 7.767c-4.524 0-8.2 3.669-8.2 8.2s3.675 8.2 8.2 8.2c4.524 0 8.2-3.675 8.2-8.2s-3.675-8.2-8.2-8.2zM15.967 21.29c-2.94 0-5.323-2.383-5.323-5.323s2.383-5.323 5.323-5.323c2.94 0 5.323 2.383 5.323 5.323s-2.383 5.323-5.323 5.323z"></path>
<path fill="#996830" style="fill: var(--color2, #996830)" d="M24.489 9.358c1.057 0 1.914-0.857 1.914-1.914s-0.857-1.914-1.914-1.914c-1.057 0-1.914 0.857-1.914 1.914s0.857 1.914 1.914 1.914z"></path>
</symbol>
<symbol id="facebook" viewBox="0 0 32 32">
<path fill="#996830" style="fill: var(--color2, #996830)" d="M32 16c0-8.838-7.163-16-16-16s-16 7.162-16 16c0 7.988 5.85 14.606 13.5 15.806v-11.181h-4.063v-4.625h4.063v-3.525c0-4.009 2.387-6.225 6.044-6.225 1.75 0 3.581 0.313 3.581 0.313v3.938h-2.019c-1.988 0-2.606 1.234-2.606 2.5v3h4.437l-0.709 4.625h-3.728v11.181c7.65-1.2 13.5-7.819 13.5-15.806z"></path>
</symbol>
<symbol id="youtube" viewBox="0 0 32 32">
<path fill="#996830" style="fill: var(--color2, #996830)" d="M31.328 8.079c0.672 2.56 0.672 7.904 0.672 7.904s0 5.344-0.672 7.904c-0.352 1.408-1.44 2.528-2.816 2.912-2.496 0.704-12.512 0.704-12.512 0.704s-10.016 0-12.512-0.704c-1.376-0.384-2.464-1.504-2.816-2.912-0.672-2.56-0.672-7.904-0.672-7.904s0-5.344 0.672-7.904c0.352-1.408 1.44-2.528 2.816-2.912 2.496-0.672 12.512-0.672 12.512-0.672s10.016 0 12.512 0.672c1.376 0.384 2.464 1.504 2.816 2.912zM12.992 21.487l8-4.992-8-4.992v9.984z"></path>
</symbol>
<symbol id="twitter" viewBox="0 0 32 32">
<path fill="#996830" style="fill: var(--color2, #996830)" d="M32 4.82c-1.198 0.555-2.469 0.919-3.771 1.081 1.354-0.851 2.395-2.195 2.885-3.799-1.289 0.8-2.699 1.363-4.169 1.666-1.241-1.386-2.976-2.171-4.791-2.168-3.624 0-6.566 3.074-6.566 6.865 0 0.539 0.058 1.064 0.171 1.565-5.457-0.287-10.293-3.019-13.532-7.173-0.566 1.013-0.888 2.193-0.888 3.452 0 2.381 1.159 4.483 2.92 5.714-1.043-0.033-2.063-0.328-2.974-0.859v0.088c0 3.326 2.263 6.101 5.265 6.733-0.967 0.274-1.98 0.314-2.964 0.117 0.836 2.728 3.261 4.713 6.133 4.77-2.247 1.839-5.077 2.938-8.153 2.938-0.523-0.001-1.046-0.033-1.565-0.096 2.905 1.948 6.357 3.086 10.064 3.086 12.076 0 18.678-10.464 18.678-19.538 0-0.297 0-0.594-0.020-0.888 1.285-0.972 2.394-2.175 3.277-3.553h0.002z"></path>
</symbol>
</defs>
</svg>
